<?xml version="1.0" encoding="utf-8"?><svg xmlns="http://www.w3.org/2000/svg" viewBox="0 0 500 500" fill="none" width="500" height="500"><g class="abigM" transform="translate(0 100)" fill-opacity="0"><path clip-rule="evenodd" d="M142.461 219.777v47.863a12.3 12.3 0 005.585 10.305l30.143 19.646a12.306 12.306 0 0013.437 0l30.143-19.646a12.3 12.3 0 005.585-10.305v-47.863c0-5.505-3.658-10.34-8.956-11.838l-30.143-8.522a12.3 12.3 0 00-6.695 0l-30.144 8.522a12.302 12.302 0 00-8.955 11.838zM140 267.64v-47.863a14.763 14.763 0 0110.747-14.206l30.143-8.522a14.76 14.76 0 018.035 0l30.143 8.522a14.765 14.765 0 0110.747 14.206v47.863a14.76 14.76 0 01-6.702 12.366l-30.143 19.646a14.766 14.766 0 01-16.125 0l-30.143-19.646A14.76 14.76 0 01140 267.64z" fill="none"/><path clip-rule="evenodd" d="M192.953 299.657a14.72 14.72 0 01-8.011 2.39V196.492c1.337.003 2.674.188 3.973.556l30.161 8.527a14.759 14.759 0 0110.739 14.205v47.85c0 4.993-2.521 9.647-6.701 12.371l-30.161 19.656zm16.254-55.22l11.803-19.377 6.267.604v37.547l-5.847.563v-27.569l-11.811 20.107-.825.046-13.395-21.282v31.205l-7.955.766v-45.22l8.555.824 13.208 21.786z" fill="none"/><animateTransform attributeName="transform" type="translate" values="0 100; 0 0" dur="0.3s" repeatCount="1" fill="freeze"/><animate attributeName="fill-opacity" values="0; 1" dur="0.3s" fill="freeze" repeatCount="1"/></g><g class="ae" transform="translate(0 -100)" fill-opacity="0"><path d="M240.989 255.739c.447 2.124 1.471 3.764 3.073 4.919 1.602 1.118 3.558 1.677 5.868 1.677 3.204 0 5.607-1.155 7.209-3.466l4.974 2.907c-2.757 4.062-6.836 6.093-12.239 6.093-4.545 0-8.215-1.379-11.009-4.137-2.794-2.794-4.191-6.316-4.191-10.564 0-4.174 1.378-7.658 4.135-10.453 2.757-2.832 6.297-4.248 10.618-4.248 4.099 0 7.452 1.434 10.06 4.304 2.645 2.869 3.967 6.354 3.967 10.453 0 .633-.074 1.472-.223 2.515h-22.242zm-.056-4.919h16.43c-.41-2.273-1.36-3.987-2.85-5.142-1.453-1.156-3.167-1.733-5.142-1.733-2.235 0-4.098.615-5.588 1.844-1.49 1.23-2.44 2.907-2.85 5.031z" fill="none"/><animateTransform attributeName="transform" type="translate" values="0 -100; 0 0" dur="0.3s" repeatCount="1" fill="freeze" begin="0.3s"/><animate attributeName="fill-opacity" values="0; 1" dur="0.3s" fill="freeze" repeatCount="1" begin="0.3s"/></g><g class="ad" transform="translate(0 100)" fill-opacity="0"><path d="M291.137 228.014h6.035v39.128h-6.035v-4.024c-2.273 3.167-5.533 4.751-9.78 4.751-3.837 0-7.116-1.416-9.836-4.248-2.719-2.87-4.079-6.354-4.079-10.453 0-4.137 1.36-7.621 4.079-10.453 2.72-2.832 5.999-4.248 9.836-4.248 4.247 0 7.507 1.565 9.78 4.695v-15.148zm-15.145 31.582c1.677 1.677 3.782 2.515 6.315 2.515 2.534 0 4.639-.838 6.315-2.515 1.677-1.714 2.515-3.857 2.515-6.428 0-2.571-.838-4.696-2.515-6.373-1.676-1.714-3.781-2.571-6.315-2.571-2.533 0-4.638.857-6.315 2.571-1.676 1.677-2.515 3.802-2.515 6.373s.839 4.714 2.515 6.428z" fill="none"/><animateTransform attributeName="transform" type="translate" values="0 100; 0 0" dur="0.3s" repeatCount="1" fill="freeze" begin="0.6s"/><animate attributeName="fill-opacity" values="0; 1" dur="0.3s" fill="freeze" repeatCount="1" begin="0.6s"/></g><g class="abigE" transform="translate(0 -100)" fill-opacity="0"><path d="M310.625 260.993h17.325v6.149h-23.751v-39.128h23.471v6.149h-17.045v10.173h15.648v6.093h-15.648v10.564z" fill="none"/><animateTransform attributeName="transform" type="translate" values="0 -100; 0 0" dur="0.3s" repeatCount="1" fill="freeze" begin="0.9s"/><animate attributeName="fill-opacity" values="0; 1" dur="0.3s" fill="freeze" repeatCount="1" begin="0.9s"/></g><g class="ax" transform="translate(0 100)" fill-opacity="0"><path d="M358.509 267.142h-6.986l-6.93-9.558-6.985 9.558h-7.042l10.507-14.365-9.948-13.584h6.986l6.427 8.832 6.426-8.832h7.042l-9.948 13.639 10.451 14.31z" fill="none"/><animateTransform attributeName="transform" type="translate" values="0 100; 0 0" dur="0.3s" repeatCount="1" fill="freeze" begin="1.2s"/><animate attributeName="fill-opacity" values="0; 1" dur="0.3s" fill="freeze" repeatCount="1" begin="1.2s"/></g></svg>