<?xml version="1.0" encoding="utf-8"?><svg xmlns="http://www.w3.org/2000/svg" viewBox="0 0 219 109" fill="none" width="219" height="109"><path fill-rule="evenodd" clip-rule="evenodd" d="M2.46 23.777v47.862c0 4.159 2.102 8.035 5.586 10.306l30.143 19.646a12.306 12.306 0 0013.437 0l30.143-19.646a12.301 12.301 0 005.585-10.305V23.776c0-5.505-3.658-10.34-8.956-11.838L48.255 3.417a12.305 12.305 0 00-6.695 0l-30.144 8.522a12.302 12.302 0 00-8.955 11.838zM0 71.639V23.777C0 17.17 4.39 11.369 10.747 9.57L40.89 1.05a14.766 14.766 0 018.035 0l30.143 8.522a14.762 14.762 0 0110.747 14.206v47.862c0 4.99-2.522 9.642-6.702 12.367l-30.144 19.646a14.765 14.765 0 01-16.124 0L6.702 84.006A14.762 14.762 0 010 71.64z" fill="#fff"/><path d="M0 23.78c0-.34.012-.676.034-1.01v49.868C.012 72.304 0 71.968 0 71.63V23.78zM6.7 84a14.792 14.792 0 01-.612-.421l31.408 20.469a15.438 15.438 0 01-.634-.391L6.7 84.001z" fill="#fff"/><path fill-rule="evenodd" clip-rule="evenodd" d="M52.953 103.657a14.719 14.719 0 01-8.011 2.39V.492c1.337.003 2.674.188 3.973.556l30.161 8.527A14.759 14.759 0 0189.815 23.78v47.85c0 4.993-2.521 9.647-6.701 12.37l-30.161 19.657zm16.254-55.22L81.01 29.06l6.267.604V67.21l-5.847.563V40.205L69.619 60.312l-.825.046L55.4 39.076V70.28l-7.956.766v-45.22l8.555.824 13.208 21.786z" fill="#fff"/><path d="M10.234 9.727L41.407.914c-.17.041-.34.086-.508.134L10.74 9.575c-.17.047-.338.098-.505.152zM100.989 59.74c.447 2.123 1.471 3.763 3.073 4.918 1.602 1.118 3.558 1.677 5.868 1.677 3.204 0 5.607-1.155 7.209-3.466l4.974 2.907c-2.757 4.062-6.836 6.093-12.239 6.093-4.545 0-8.215-1.379-11.009-4.137-2.794-2.794-4.191-6.316-4.191-10.564 0-4.174 1.378-7.658 4.135-10.453 2.757-2.832 6.297-4.248 10.618-4.248 4.099 0 7.452 1.434 10.06 4.304 2.645 2.87 3.967 6.354 3.967 10.453 0 .633-.074 1.472-.223 2.515h-22.242zm-.056-4.92h16.43c-.41-2.273-1.36-3.987-2.85-5.142-1.453-1.156-3.167-1.733-5.142-1.733-2.235 0-4.098.615-5.588 1.844-1.49 1.23-2.44 2.907-2.85 5.031zM151.137 32.014h6.035v39.128h-6.035v-4.024c-2.273 3.167-5.533 4.75-9.78 4.75-3.837 0-7.116-1.415-9.836-4.247-2.719-2.87-4.079-6.354-4.079-10.453 0-4.137 1.36-7.62 4.079-10.453 2.72-2.832 5.999-4.248 9.836-4.248 4.247 0 7.507 1.565 9.78 4.695V32.014zm-15.145 31.582c1.677 1.677 3.782 2.515 6.315 2.515 2.534 0 4.639-.838 6.315-2.515 1.677-1.714 2.515-3.857 2.515-6.428 0-2.572-.838-4.696-2.515-6.373-1.676-1.714-3.781-2.57-6.315-2.57-2.533 0-4.638.856-6.315 2.57-1.676 1.677-2.515 3.801-2.515 6.373 0 2.571.839 4.714 2.515 6.428z" fill="#fff"/><path d="M170.625 64.993h17.325v6.15h-23.751v-39.13h23.471v6.15h-17.045v10.173h15.648v6.093h-15.648v10.564z" fill="#03C4A1"/><path d="M170.625 64.993h17.325v6.15h-23.751v-39.13h23.471v6.15h-17.045v10.173h15.648v6.093h-15.648v10.564z" fill="#000" fill-opacity=".2"/><path d="M218.509 71.142h-6.986l-6.93-9.558-6.985 9.558h-7.042l10.507-14.365-9.948-13.584h6.986l6.427 8.832 6.426-8.831h7.042l-9.948 13.639 10.451 14.31z" fill="#03C4A1"/><path d="M218.509 71.142h-6.986l-6.93-9.558-6.985 9.558h-7.042l10.507-14.365-9.948-13.584h6.986l6.427 8.832 6.426-8.831h7.042l-9.948 13.639 10.451 14.31z" fill="#000" fill-opacity=".2"/></svg>