.preloader
    .preloader__in.
        <svg xmlns="http://www.w3.org/2000/svg" width="100%" height="100%" viewBox="0 0 500 500" fill="none">
            <g class="bigM" transform="translate(0 100)" fill-opacity="0">
                <path fill-rule="evenodd" clip-rule="evenodd" d="M142.461 219.777V267.64C142.461 271.798 144.562 275.674 148.046 277.945L178.189 297.591C182.272 300.252 187.542 300.252 191.626 297.591L221.769 277.945C225.253 275.674 227.354 271.798 227.354 267.64V219.777C227.354 214.272 223.696 209.437 218.398 207.939L188.255 199.417C186.066 198.798 183.749 198.798 181.56 199.417L151.416 207.939C146.118 209.437 142.461 214.272 142.461 219.777ZM140 267.64V219.777C140 213.171 144.389 207.369 150.747 205.571L180.89 197.049C183.517 196.306 186.298 196.306 188.925 197.049L219.068 205.571C225.425 207.369 229.815 213.171 229.815 219.777V267.64C229.815 272.629 227.294 277.282 223.113 280.006L192.97 299.652C188.069 302.846 181.745 302.846 176.845 299.652L146.702 280.006C142.521 277.282 140 272.629 140 267.64Z" fill="white"/>
                <path fill-rule="evenodd" clip-rule="evenodd" d="M192.953 299.657C190.517 301.244 187.73 302.041 184.942 302.047V196.492C186.279 196.495 187.616 196.68 188.915 197.048L219.076 205.575C225.428 207.37 229.815 213.173 229.815 219.78V267.63C229.815 272.623 227.294 277.277 223.114 280.001L192.953 299.657ZM209.207 244.437L221.01 225.06L227.277 225.664V263.211L221.43 263.774V236.205L209.619 256.312L208.794 256.358L195.399 235.076V266.281L187.444 267.047V221.827L195.999 222.651L209.207 244.437Z" fill="white"/>
                <animateTransform
                    attributeName="transform"
                    type="translate"
                    values="0 100; 0 0"
                    dur="0.3s"
                    repeatCount="1"
                    fill="freeze"
                />
                <animate
                    attributeName="fill-opacity"
                    values="0; 1"
                    dur="0.3s"
                    fill="freeze"
                    repeatCount="1"
                />
            </g>
            <g class="e" transform="translate(0 -100)" fill-opacity="0">
                <path d="M240.989 255.739C241.436 257.863 242.46 259.503 244.062 260.658C245.664 261.776 247.62 262.335 249.93 262.335C253.134 262.335 255.537 261.18 257.139 258.869L262.113 261.776C259.356 265.838 255.277 267.869 249.874 267.869C245.329 267.869 241.659 266.49 238.865 263.732C236.071 260.938 234.674 257.416 234.674 253.168C234.674 248.994 236.052 245.51 238.809 242.715C241.566 239.883 245.106 238.467 249.427 238.467C253.526 238.467 256.879 239.901 259.487 242.771C262.132 245.64 263.454 249.125 263.454 253.224C263.454 253.857 263.38 254.696 263.231 255.739H240.989ZM240.933 250.82H257.363C256.953 248.547 256.003 246.833 254.513 245.678C253.06 244.522 251.346 243.945 249.371 243.945C247.136 243.945 245.273 244.56 243.783 245.789C242.293 247.019 241.343 248.696 240.933 250.82Z" fill="white"/>
                <animateTransform
                    attributeName="transform"
                    type="translate"
                    values="0 -100; 0 0"
                    dur="0.3s"
                    repeatCount="1"
                    fill="freeze"
                    begin="0.3s"
                />
                <animate
                    attributeName="fill-opacity"
                    values="0; 1"
                    dur="0.3s"
                    fill="freeze"
                    repeatCount="1"
                    begin="0.3s"
                />
            </g>
            <g class="d" transform="translate(0 100)" fill-opacity="0">
                <path d="M291.137 228.014H297.172V267.142H291.137V263.118C288.864 266.285 285.604 267.869 281.357 267.869C277.52 267.869 274.241 266.453 271.521 263.621C268.802 260.751 267.442 257.267 267.442 253.168C267.442 249.031 268.802 245.547 271.521 242.715C274.241 239.883 277.52 238.467 281.357 238.467C285.604 238.467 288.864 240.032 291.137 243.162V228.014ZM275.992 259.596C277.669 261.273 279.774 262.111 282.307 262.111C284.841 262.111 286.946 261.273 288.622 259.596C290.299 257.882 291.137 255.739 291.137 253.168C291.137 250.597 290.299 248.472 288.622 246.795C286.946 245.081 284.841 244.224 282.307 244.224C279.774 244.224 277.669 245.081 275.992 246.795C274.316 248.472 273.477 250.597 273.477 253.168C273.477 255.739 274.316 257.882 275.992 259.596Z" fill="white"/>
                <animateTransform
                    attributeName="transform"
                    type="translate"
                    values="0 100; 0 0"
                    dur="0.3s"
                    repeatCount="1"
                    fill="freeze"
                    begin="0.6s"
                />
                <animate
                    attributeName="fill-opacity"
                    values="0; 1"
                    dur="0.3s"
                    fill="freeze"
                    repeatCount="1"
                    begin="0.6s"
                />
            </g>
            <g class="bigE" transform="translate(0 -100)" fill-opacity="0">
                <path d="M310.625 260.993H327.95V267.142H304.199V228.014H327.67V234.163H310.625V244.336H326.273V250.429H310.625V260.993Z" fill="#03C4A1"/>
                <animateTransform
                    attributeName="transform"
                    type="translate"
                    values="0 -100; 0 0"
                    dur="0.3s"
                    repeatCount="1"
                    fill="freeze"
                    begin="0.9s"
                />
                <animate
                    attributeName="fill-opacity"
                    values="0; 1"
                    dur="0.3s"
                    fill="freeze"
                    repeatCount="1"
                    begin="0.9s"
                />
            </g>
            <g class="x" transform="translate(0 100)" fill-opacity="0">
                <path d="M358.509 267.142H351.523L344.593 257.584L337.608 267.142H330.566L341.073 252.777L331.125 239.193H338.111L344.538 248.025L350.964 239.193H358.006L348.058 252.832L358.509 267.142Z" fill="#03C4A1"/>
                <animateTransform
                    attributeName="transform"
                    type="translate"
                    values="0 100; 0 0"
                    dur="0.3s"
                    repeatCount="1"
                    fill="freeze"
                    begin="1.2s"
                />
                <animate
                    attributeName="fill-opacity"
                    values="0; 1"
                    dur="0.3s"
                    fill="freeze"
                    repeatCount="1"
                    begin="1.2s"
                />
            </g>
        </svg>