<svg xmlns="http://www.w3.org/2000/svg" width="100%" viewBox="0 0 219 109" fill="none">
<path fill-rule="evenodd" clip-rule="evenodd" d="M2.46067 23.7766V71.6395C2.46067 75.7977 4.56159 79.6745 8.04555 81.9451L38.1888 101.591C42.2724 104.252 47.5423 104.252 51.6258 101.591L81.7691 81.9451C85.253 79.6745 87.3539 75.7977 87.3539 71.6395V23.7766C87.3539 18.2716 83.6962 13.4369 78.3983 11.939L48.255 3.41656C46.0661 2.79769 43.7485 2.79769 41.5596 3.41657L11.4163 11.939C6.11839 13.4369 2.46067 18.2716 2.46067 23.7766ZM0 71.6395V23.7766C0 17.1707 4.38926 11.3689 10.7468 9.57146L40.89 1.04905C43.5167 0.306405 46.2979 0.306404 48.9246 1.04905L79.0678 9.57146C85.4253 11.3689 89.8146 17.1707 89.8146 23.7766V71.6395C89.8146 76.6293 87.2935 81.2815 83.1127 84.0063L52.9695 103.652C48.0692 106.846 41.7454 106.846 36.8451 103.652L6.70186 84.0063C2.5211 81.2815 0 76.6293 0 71.6395Z" fill="white"/>
<path d="M0 23.7799C0 23.4409 0.0115476 23.104 0.0343157 22.7696V72.638C0.0115275 72.304 0 71.968 0 71.6304V23.7799Z" fill="white"/>
<path d="M6.7006 84.0007C6.49208 83.8648 6.28769 83.7241 6.08753 83.5788L37.4959 104.048C37.282 103.923 37.0706 103.793 36.8617 103.657L6.7006 84.0007Z" fill="white"/>
<path fill-rule="evenodd" clip-rule="evenodd" d="M52.9529 103.657C50.5173 105.244 47.7302 106.041 44.9416 106.047V0.492065C46.279 0.49518 47.616 0.680391 48.9152 1.0477L79.0763 9.57453C85.4284 11.3703 89.8146 17.1727 89.8146 23.7799V71.6304C89.8146 76.6228 87.2936 81.2768 83.114 84.0007L52.9529 103.657ZM69.2072 48.4372L81.0104 29.0599L87.2775 29.6636V67.2107L81.43 67.774V40.2052L69.619 60.3123L68.7939 60.3584L55.3995 39.0756V70.2811L47.4444 71.0473V25.8272L55.9994 26.6511L69.2072 48.4372Z" fill="white"/>
<path d="M10.2338 9.72685L41.4067 0.913983C41.237 0.955492 41.0679 1.00006 40.8994 1.0477L10.7383 9.57454C10.5687 9.62247 10.4006 9.67326 10.2338 9.72685Z" fill="white"/>
<path d="M100.989 59.7391C101.436 61.8632 102.46 63.5029 104.062 64.6581C105.664 65.776 107.62 66.335 109.93 66.335C113.134 66.335 115.537 65.1798 117.139 62.8694L122.113 65.776C119.356 69.8379 115.277 71.8689 109.874 71.8689C105.329 71.8689 101.659 70.4901 98.8652 67.7324C96.0709 64.9376 94.6738 61.416 94.6738 57.1678C94.6738 52.9941 96.0523 49.5099 98.8093 46.715C101.566 43.8829 105.106 42.4668 109.427 42.4668C113.526 42.4668 116.879 43.9015 119.487 46.7709C122.132 49.6403 123.454 53.1246 123.454 57.2237C123.454 57.8572 123.38 58.6957 123.231 59.7391H100.989ZM100.933 54.8201H117.363C116.953 52.547 116.003 50.8328 114.513 49.6776C113.06 48.5224 111.346 47.9447 109.371 47.9447C107.136 47.9447 105.273 48.5596 103.783 49.7894C102.293 51.0191 101.343 52.696 100.933 54.8201Z" fill="white"/>
<path d="M151.137 32.0139H157.172V71.1421H151.137V67.1175C148.864 70.285 145.604 71.8688 141.357 71.8688C137.52 71.8688 134.241 70.4527 131.521 67.6206C128.802 64.7512 127.442 61.2669 127.442 57.1678C127.442 53.0313 128.802 49.5471 131.521 46.7149C134.241 43.8828 137.52 42.4667 141.357 42.4667C145.604 42.4667 148.864 44.0319 151.137 47.1621V32.0139ZM135.992 63.596C137.669 65.2729 139.774 66.1113 142.307 66.1113C144.841 66.1113 146.946 65.2729 148.622 63.596C150.299 61.8818 151.137 59.739 151.137 57.1678C151.137 54.5965 150.299 52.4724 148.622 50.7954C146.946 49.0813 144.841 48.2242 142.307 48.2242C139.774 48.2242 137.669 49.0813 135.992 50.7954C134.316 52.4724 133.477 54.5965 133.477 57.1678C133.477 59.739 134.316 61.8818 135.992 63.596Z" fill="white"/>
<path d="M170.625 64.9934H187.95V71.1421H164.199V32.0139H187.67V38.1626H170.625V48.336H186.273V54.4288H170.625V64.9934Z" fill="#03C4A1"/>
<path d="M170.625 64.9934H187.95V71.1421H164.199V32.0139H187.67V38.1626H170.625V48.336H186.273V54.4288H170.625V64.9934Z" fill="black" fill-opacity="0.2"/>
<path d="M218.509 71.1422H211.523L204.593 61.5837L197.608 71.1422H190.566L201.073 56.7766L191.125 43.1935H198.111L204.538 52.0253L210.964 43.1935H218.006L208.058 56.8325L218.509 71.1422Z" fill="#03C4A1"/>
<path d="M218.509 71.1422H211.523L204.593 61.5837L197.608 71.1422H190.566L201.073 56.7766L191.125 43.1935H198.111L204.538 52.0253L210.964 43.1935H218.006L208.058 56.8325L218.509 71.1422Z" fill="black" fill-opacity="0.2"/>
</svg>