<svg xmlns="http://www.w3.org/2000/svg" viewBox="0 0 641 775" fill="none"><mask id="mask0_101_208" style="mask-type:alpha" maskUnits="userSpaceOnUse" x="136" y="155" width="369" height="442"><path d="M484.141 202.231l-159.459-46.606-.329-.092a16.163 16.163 0 00-8.235 0l-.166.044-159.623 46.654c-11.775 3.199-19.982 13.917-19.982 26.136v227.35c0 29.85 16.477 56.764 43.027 70.344l104.415 61.372.725.395c11.184 5.644 23.452 8.467 35.72 8.467 12.268 0 24.537-2.822 35.719-8.467l.37-.186 104.771-61.581c26.551-13.578 43.028-40.492 43.028-70.344v-227.35c-.001-12.219-8.206-22.936-19.981-26.136z" fill="#fff"/></mask><g mask="url(#mask0_101_208)" fill="#fff" fill-opacity=".71"><g opacity=".19"><path opacity=".19" d="M271.307 350.69c.821-.22 26.705-6.953 29.586-7.318l.269-.005c-.248.337-.513.611-.698.932l.16.092c-3.837 3.872-9.509 5.188-14.896 5.549-4.83.414-9.641.146-14.421.75zm39.821 41.998a8.64 8.64 0 01-1.604.836c-3.166 1.322-6.733 1.398-10.128 1.36.063-.017.029-.144-.165-.362.045-1.096 1.258-4.399 1.258-4.399l10.639 2.565z"/><path opacity=".19" d="M299.316 394.838c.063-.017.063-.017 0 0-9.137.01-18.391-.421-27.603-.186l15.138-4.395 12.465 4.581zm-96.478-23.027c3.049-.749 20.319-7.543 20.934-7.775-1.133.574-2.248 1.211-3.266 1.958-1.427.992-2.82 2.11-3.635 3.614-.816 1.505-1.037 3.46-.091 4.966.489.817 1.164 1.313 1.948 1.712-.017-.063-13.299-4.154-15.89-4.475zm82.024 42.605l8.451.714c-3.755 2.157-8.118 3.055-12.371 3.857-3.605.695-7.159 1.579-10.769.99l6.372-4.01 7.314-5.547 1.003 3.996zm-105.028-65.55l-49.061 19.78.867-1.315c2.221-1.814 4.363-3.674 6.585-5.488 1.595-1.375 3.206-2.687 4.995-3.843 4.647-2.87 10.117-3.93 15.461-4.955 2.893-.573 5.803-1.082 8.696-1.654 4.11-.83 8.284-1.678 12.457-2.525zm72.8 64.775l17.619 6.382-25.967 4.656-7.094-7.78c.527.197 7.278 2.653 7.278 2.653l8.164-5.911z"/><path opacity=".19" d="M264.097 429.39l6.076-9.413c.936.967.424 2.594-.27 3.795-1.467 2.356-3.305 4.338-5.498 6.009l-.308-.391zm-39.485-32.408l28.017-5.34c.577.386 19.084 3.009 19.084 3.009-3.154.101-6.292.265-9.476.509-6.937.64-13.865 1.819-20.81 1.92-4.313.073-8.602-.267-12.949-.321-1.221-.011-2.569.011-3.866.223z"/><path opacity=".19" d="M261.999 429.14l2.178.296.308.391c-4.275 3.245-9.601 5.349-14.708 7.259-5.107 1.91-10.214 3.82-15.491 5.098-.505.135-.964.191-1.469.326l29.182-13.37zm-24.887-12.287l7.094 7.78-43.493-1.886-3.83-7.977c.017.063 39.719 1.949 40.229 2.083z"/><path opacity=".19" d="M224.527 424.964l-22.448 1.615-17.883 5.265-.324-13.588 13.028-3.423 3.83 7.977 43.476 1.823-15.572.246-4.107.085zm5.551 13.135l2.658 4.365c-5.516 1.139-11.059 1.677-16.614 2.42-4.24.595-8.447 1.316-12.621 2.164l.477-6.559c10.786-.927 25.674-2.209 26.1-2.39z"/><path opacity=".19" d="M184.196 431.844l8.869 9.606 10.436 5.598c-10.923 2.182-21.661 5.059-32.432 7.81l13.127-23.014zm-13.127 23.014c-1.137.305-2.211.592-3.302.817-8.118 2.04-16.334 3.97-24.715 4.524-2.473.121-4.899.162-7.405.156 0 0 17.773-8.959 18.38-8.716.055.459 17.042 3.219 17.042 3.219z"/></g><path d="M77.138 465.337c-2.647-1.796-5.367-4.114-8.21-7.143a63.828 63.828 0 01-10.075-14.36c-3.344-6.415-5.538-13.341-6.608-20.366-1.109-7.42-.012-12.927 3.261-16.376l.063-.017.064-.017c3.04-.273 5.41-1.788 7.493-3.362.674-.519 1.393-1.118 2.066-1.637 1.94-1.603 4.007-3.24 6.415-4.359 1.81-.823 3.865-1.238 5.777-1.683.505-.135.964-.191 1.47-.326 1.722-.394 3.49-.868 5.225-1.468 4.732-1.539 9.628-3.731 14.987-6.724l.148.299c-5.359 2.993-10.318 5.202-15.05 6.741-1.735.6-3.504 1.074-5.226 1.468-.505.135-.965.19-1.47.326-1.928.381-3.903.843-5.714 1.666-2.361 1.039-4.348 2.722-6.304 4.262-.674.519-1.393 1.118-2.067 1.637-2.02 1.557-4.516 3.105-7.603 3.459-3.146 3.415-4.26 8.859-3.203 16.09 1.007 7.041 3.248 13.887 6.591 20.303 2.69 5.236 6.086 10.081 10.06 14.296 9.206 9.854 17.798 12.359 23.388 12.756l.063-.017.16.093a20.8 20.8 0 012.145-2.606c5.57-5.487 14.873-6.896 21.351-7.481 4.624-.427 9.338-.268 13.955-.219 1.491.007 2.999.077 4.553.066 2.919.031 5.219.024 7.405-.156 8.335-.473 16.407-2.433 24.652-4.507 1.074-.288 2.211-.592 3.302-.817 1.515-.406 3.031-.812 4.564-1.155 9.112-2.374 18.494-4.753 27.868-6.655a177.11 177.11 0 0112.621-2.163c1.567-.217 3.214-.388 4.78-.604 3.862-.493 7.931-.974 11.834-1.817.506-.136 1.028-.208 1.47-.326 5.293-1.216 10.446-3.206 15.444-5.019l.063-.017c5.36-1.977 10.479-4.094 14.709-7.258 2.365-1.784 4.14-3.749 5.452-5.929.323-.56 1.353-2.529.32-3.606l-.355-.311.493.071c3.118.519 6.327-.138 9.409-.761.443-.118.838-.157 1.281-.275 4-.734 8.569-1.619 12.307-3.84l1.035-.683c1.49-1.009 3.224-2.624 3.457-4.785.145-1.731-.758-3.588-2.529-5.144a4.54 4.54 0 00-.675-.497c-3.292-2.434-7.471-2.872-10.356-2.776-2.823.08-5.589.618-8.373 1.093-1.091.225-2.261.403-3.432.581-2.864.429-5.951.782-9.502.921l-.021-.332c3.551-.139 6.638-.493 9.501-.922 1.108-.161 2.262-.402 3.433-.581 2.703-.521 5.55-1.013 8.372-1.092 2.965-.05 7.207.37 10.58 2.851.257.202.498.341.692.56 1.851 1.602 2.771 3.522 2.597 5.397-.2 2.287-2.043 3.999-3.596 5.025-.345.228-.69.455-1.098.7-3.801 2.237-8.387 3.06-12.434 3.873-.442.119-.838.157-1.28.276-2.957.589-6.039 1.212-9.123.819.815 1.272-.186 3.097-.509 3.657-1.358 2.26-3.197 4.241-5.562 6.026-4.212 3.227-9.412 5.298-14.754 7.338l-.064.017c-4.98 1.876-10.15 3.803-15.427 5.082-.505.135-.964.19-1.469.326-3.904.843-7.972 1.324-11.834 1.817-1.567.217-3.214.387-4.78.604a177.037 177.037 0 00-12.622 2.163c-9.374 1.902-18.755 4.281-27.868 6.655-1.515.406-3.031.812-4.564 1.155-1.137.305-2.211.593-3.302.817-8.244 2.074-16.397 3.988-24.715 4.524-2.14.099-4.486.187-7.405.156-1.491-.006-3.062-.059-4.553-.066-4.571-.129-9.267-.225-13.892.202-6.414.568-15.654 1.961-21.178 7.367-.795.823-1.573 1.708-2.191 2.686l-.093.16-.32-.185c-4.053-.471-9.484-1.791-15.47-5.941z"/><path d="M99.197 387.735l-.148-.299c1.524-.882 3.174-1.798 4.744-2.76 1.052-.621 2.087-1.304 3.249-2.022 2.37-1.515 4.786-3.11 7.092-4.608 4.142-2.734 8.456-5.583 12.854-8.115.943-.524 1.811-.824 2.682-.854l.803-1.298c1.33-1.101 2.706-2.282 4.099-3.4l2.487-2.088c1.485-1.278 3.206-2.687 4.995-3.844 4.693-2.949 10.433-4.014 15.461-4.955l8.696-1.653c4.632-.903 8.742-1.733 12.537-2.479l.084.316a391.324 391.324 0 01-12.536 2.479l-8.696 1.653c-5.028.941-10.688 2.052-15.398 4.938-1.806 1.093-3.401 2.468-5.012 3.78l-2.487 2.088c-1.33 1.101-2.706 2.282-4.036 3.383l-.849 1.379-.063.017c-.872.03-1.739.33-2.619.837-4.399 2.532-8.649 5.364-12.791 8.098-2.306 1.498-4.722 3.093-7.092 4.608-1.162.718-2.197 1.401-3.249 2.022-1.65.916-3.283 1.895-4.807 2.777zm79.681-38.139l-.084-.316c10.511-2.207 19.611-4.375 27.851-6.718l.277-.48.064-.017c7.088-3.863 14.24-7.742 21.329-11.605.833-.427 1.885-1.047 3.01-1.145.998-.065 2.321.326 2.815 1.412.182.425.237.884.292 1.343.107.649.133 1.251.63 1.591.24.139.481.278.813.256.476.008 1.045-.144 1.533-.343l.126-.033c2.666-.918 5.572-.681 8.336-.474a47.02 47.02 0 002.953.157c2.523.068 5.024-.196 7.463-.443l11.464-1.176c5.067-.545 10.133-1.091 15.28-1.59 2.501-.264 5.003-.528 7.594-.207 2.384.309 4.588 1.208 6.426 2.002.383.168.767.336 1.07.458l.08.046c1.918.84 4.11 1.945 4.921 3.962.578 1.402.387 3.213-.521 4.878-.462.801-1.068 1.572-1.691 2.281l-.605.771c-.248.338-.45.595-.589.835l.16.093-.172.114c-3.307 3.323-8.178 5.102-14.942 5.628-1.934.112-3.884.161-5.771.192-2.839.016-5.787.129-8.605.478l-.021-.333c2.864-.428 5.766-.461 8.668-.494 1.887-.032 3.837-.081 5.77-.193 6.638-.492 11.383-2.237 14.677-5.354l-.08-.046.093-.16c.185-.321.45-.595.681-.995l.606-.772c.559-.691 1.165-1.463 1.627-2.264.862-1.585 1.024-3.253.462-4.592-.777-1.89-2.826-2.966-4.743-3.806l-.08-.046c-.384-.168-.704-.353-1.071-.458-1.837-.794-4.024-1.629-6.345-1.955-2.528-.338-5.03-.074-7.468.173a1458.84 1458.84 0 01-15.28 1.589l-11.544 1.131c-2.502.264-5.004.528-7.527.459-1.015.001-1.984-.077-3.016-.139-2.763-.208-5.59-.398-8.255.519l-.126.034c-.489.199-1.12.368-1.66.377a1.283 1.283 0 01-.956-.285c-.594-.45-.637-1.116-.76-1.828-.039-.395-.094-.855-.259-1.217-.46-.959-1.623-1.257-2.495-1.227-1.061.082-2.004.605-2.884 1.112l-21.266 11.588-.34.497-.063.017c-8.178 2.326-17.341 4.511-27.852 6.718z"/><path d="M222.863 364.686l-.148-.299c1.84-.967 3.73-1.744 5.919-2.669l3.465-1.47c2.741-1.141 5.528-2.361 8.269-3.502 1.953-.794 3.953-1.669 6.054-2.164 1.453-.389 3.019-.606 5.079-.751.998-.065 2.076-.083 3.075-.147 2.139-.1 4.359-.153 6.557-.539 1.297-.212 2.624-.568 3.95-.923 1.074-.288 2.211-.592 3.382-.771.315-.084.648-.106 1.027-.207l.085.316c-.316.084-.649.106-.965.19-1.09.225-2.227.529-3.318.754-1.263.339-2.606.631-3.95.923-2.198.386-4.418.439-6.557.539-.999.064-2.077.082-3.075.146-2.06.146-3.626.363-5.079.752-2.101.495-4.101 1.37-6.054 2.164-2.741 1.141-5.528 2.361-8.269 3.502l-3.465 1.47c-2.332.895-4.142 1.719-5.982 2.686z"/><path d="M222.612 397.857l-.085-.316c.379-.102.712-.123 1.091-.225 1.424-.246 2.915-.239 3.947-.177 1.634.036 3.268.072 4.857.188 2.666.098 5.395.179 8.091.133 4.52-.06 9.11-.613 13.494-1.178 2.422-.311 4.861-.558 7.299-.805a186.16 186.16 0 019.477-.508c5.914-.163 11.895-.074 17.687.067 3.268.072 6.6.127 9.915.119 3.728.016 7.026-.055 10.066-1.344a7.134 7.134 0 001.54-.819c2.686-1.599 4.326-4.069 4.504-6.69.086-1.445-.32-2.96-1.151-4.295-1.076-1.742-2.767-3.252-4.765-4.139-1.391-.642-2.92-1.045-4.749-1.3-2.051-.33-4.225-.357-6.129-.388-1.015.001-2.047-.061-3.062-.06-.952-.016-1.904-.031-2.936-.093l-5.522-.145-5.523-.145-20.404-.355c-4.633-.112-9.41-.254-14.085-.017a74.256 74.256 0 00-9.152.963l-.316.085c-4.552.949-9.164 1.169-13.936 1.297-2.22.053-3.905-.172-5.153-.786-.927-.428-1.555-1.005-2.028-1.758-.848-1.398-.787-3.445.121-5.11.722-1.344 1.846-2.457 3.681-3.694.972-.666 2.087-1.304 3.329-1.975l.148.299c-1.242.671-2.294 1.291-3.266 1.958-1.772 1.22-2.895 2.333-3.572 3.597-.862 1.585-.893 3.489-.142 4.777a4.491 4.491 0 001.931 1.649c1.231.55 2.853.793 5.009.756 4.773-.127 9.385-.348 13.874-1.28l.316-.084c2.846-.492 5.807-.812 9.215-.98 4.675-.238 9.451-.096 14.085.017l20.518.527 5.522.145 5.523.145c.951.016 1.903.031 2.935.093 1.016-.001 2.048.061 3.063.06 1.904.031 4.094.121 6.129.388 1.828.255 3.438.704 4.829 1.347 2.014.949 3.848 2.489 4.925 4.231.865 1.461 1.271 2.977 1.201 4.485-.161 2.683-1.91 5.25-4.642 6.93a8.549 8.549 0 01-1.604.836c-3.102 1.305-6.464 1.393-10.191 1.377-3.315.008-6.727-.093-9.916-.119-5.792-.14-11.773-.23-17.687-.067-3.424.105-6.562.269-9.476.508a329.18 329.18 0 00-7.299.805c-4.401.502-8.992 1.055-13.511 1.116-2.696.045-5.426-.036-8.092-.134-1.571-.053-3.222-.152-4.84-.125-1.015.001-2.443-.022-3.866.224a2.3 2.3 0 00-1.222-.011z"/><path d="M221.682 398.174l-.085-.316 1.01-.271.085.316c-.459.055-.775.14-1.01.271z"/><path d="M219.064 403.817c-.818-.526-1.421-1.515-1.279-2.501.071-.492.331-1.036.798-1.567.732-.806 1.704-1.473 2.951-1.874l.084.316a6.83 6.83 0 00-2.778 1.759c-.42.452-.698.932-.769 1.425-.188 1.066.685 2.051 1.612 2.479 1.008.475 2.149.44 3.227.422l22.999-.07.021.333-22.998.069c-1.079.019-2.3.007-3.371-.45a2.803 2.803 0 00-.497-.341zm-126.25 67.474l-.097-.11-33.928-27.33-.017-.063-3.283-36.759 43.497-19.576 30.667-18.439 49.141-19.734.459-.055-3.928 5.046-1.193 10.204 11.049 7.126-10.301 9.056-1.546 17.474 9.494 3.345-6.011 6.621-1.783 12.798 8.362 11.502-.046.08-13.173 23.094-.144-.029c-.063.017-4.309-.673-8.51-1.443-7.111-1.276-8.354-1.62-8.612-1.822-.791.077-11.316 5.266-18.236 8.745l-.063.017-28.99-5.365-12.808 15.617zm-33.726-27.587l33.608 27.145 12.698-15.52.08.046 29.053 5.348c5.254-2.626 17.255-8.618 18.38-8.716l.126-.034.017.064c.658.433 10.377 2.093 16.819 3.143l13.034-22.854-8.345-11.439 1.859-13.022.063-.017 5.683-6.329-9.191-3.224 1.571-17.886 10.082-8.862-10.889-7.034 1.252-10.49 3.385-4.292-48.572 19.582-30.604 18.422-43.37 19.542 3.261 36.427zm240.849-99.603l-.021-.332c.189-.051.27-.005.333-.022l.16.093-.093.16-.16-.093-.029.144c.017.063-.046.08-.19.05zm.236-.131l-.097-.109.097.109zm-29.821 7.45l-.085-.316.253-.068c6.27-1.612 26.785-6.906 29.333-7.25l.021.332c-2.548.345-23.063 5.639-29.27 7.234l-.252.068z"/><path d="M270.415 351.403l-.148-.299 15.175-7.79-13.692-2.085 12.701-9.699 1.606 11.552 13.859.687.021.333-13.938-.733-15.584 8.034zm13.793-19.266l-11.7 8.889 13.263 1.997-1.563-10.886z"/><path d="M299.937 344.101l-.034-.126-.097-.109.097.109-.05-.189.08.046-.03.143.161.092-.127.034z"/><path d="M207.537 348.416l-.034-.126.126-.034-.034-.127a34.027 34.027 0 002.011-2.095c3.429-3.627 5.221-5.529 5.777-5.475.063-.017.143.03.143.03.86.175 12.56-3.907 20.206-6.701l.253-.068-.375 10.729 10.922 9.936 23.609-3.347 1.736-9.943-1.343-6.274-3.15-3.421 29.557.407.034.126L300.317 344l.05.19-.476-.008.042-.35-3.194-11.668-28.542-.408 2.762 2.983 1.394 6.464-.029.143-1.766 10.086-.918.111-23.087 3.275-.08-.046-11.099-10.092-.016-.063.333-10.379c-1.057.351-5.36 1.978-9.76 3.495-9.541 3.301-10.286 3.298-10.463 3.142-.586.089-3.796 3.522-5.524 5.407-2.041 2.239-2.121 2.193-2.264 2.163l-.143-.029z"/><path d="M200.619 403.953l21.61-6.264-9.253-5.983-.054-9.802 4.53-5.072c-1.769-.542-13.121-3.999-15.586-4.354-.379.102-.459.055-.539.009l-.08-.046-.017-.063c-.017-.063.03-.143.093-.16.046-.081.172-.114.522-.073 2.733-.664 16.079-5.933 20.491-7.657l-13.469-5.8-.017-.064c-.144-1.044-1.297-10.145-1.347-10.335l.332-.021c-.012.206.842 6.679 1.314 10.209l14.093 6.107-.442.119-.126.034c-3.924 1.525-16.294 6.396-20.113 7.555 3.661.779 14.727 4.178 15.173 4.329l.224.075-4.796 5.347.049 9.532 9.717 6.197-.379.102-1.011.27-18.91 5.474 16.832.161.021.332-18.862-.158z"/><path d="M182.61 401.67l-.085-.316c.316-.084 29.801-10.557 30.652-9.905l.114.172-.033-.126.063-.017c1.736.415 25.619-2.668 29.607-3.195l-25.316-11.359.122-.303 25.51 11.578 2.789-13.339 9.944 13.109 4.176-12.966 15.571 12.887c4.614-12.338 4.82-12.326 4.964-12.297.143.03.332-.021 5.152 14.935l3.54-5.485 2.221-9.395 6.521 10.438c5.451-9.72 5.531-9.674 5.674-9.644.064-.017.144.029 9.674 5.531l.08.047-.029.143-3.458 11.352-10.575-2.582c-.244.606-1.167 3.223-1.246 4.192.131.236.165.362.118.442l-.046.08-.126.034s-.127.034-.16-.092a.419.419 0 01-.102-.379c-.439-.627-1.637-2.066-3.497-4.208l-8.643.082-.206-.013-4.799-.474-5.048-2.168.189-.05-.097-.11-19.586.171-.093.16-.097-.109-4.376 3.88-.08-.046-8.247-3.747c-1.693.25-28.297 3.791-30.193 3.283l-.16-.092c-1.669-.162-27.971 9.052-30.383 9.901zm63.673-26.132l-2.672 12.766 8.087 3.655 4.204-3.767-9.619-12.654zm14.068-.047l-4.07 12.599 19.127-.115-15.057-12.484zm20.438.481c-.613 1.248-3.045 7.586-4.699 12.023l4.986 2.185 4.591.462c-1.725-5.428-4.299-13.268-4.878-14.67zm8.865 9.336l-3.447 5.325 8.167-.09c-2.037-2.298-4.155-4.641-4.72-5.235zm5.407 5.525c1.552 1.75 2.573 3.033 3.109 3.77.171-1.129.914-3.156 1.141-3.826l-4.25.056zm-5.011-5.563c.759.812 2.796 3.109 4.737 5.297l4.582-.077c-.473-1.768-1.044-3.646-1.209-4.008l-.017-.063c-.32-.185-4.963-.837-8.093-1.149zm1.818-8.881l-2.046 8.536c2.654.304 6.644.792 8.03 1.166l-5.984-9.702zm6.591 9.945c.295.598 1.023 3.314 1.243 4.135l.126-.034.017.063 10.273 2.46 3.306-10.905-9.37-5.409c-.589.834-3.578 6.103-5.595 9.69z"/><path d="M182.416 401.452l18.705-28.977-16.795-.78 24.617-13.231 26.507-14.007 37.218-3.339.005.27-.585.089-36.554 3.296-26.444 13.99-23.61 12.69 16.175.743-18.982 29.457-.257-.201zm40.196-3.595l-.085-.316 1.091-.225 28.08-5.357.08.046c.481.277 11.628 1.961 19.005 2.963l15.137-4.394 12.528 4.563-.121.304-.081-.046-12.384-4.535-15.138 4.395c-1.828-.255-17.744-2.557-19.084-3.01l-29.028 5.612zm-47.734 23.215l-.084-.316 21.113-5.589c4.048.201 39.765 1.869 40.291 2.066.51.134 6.384 2.351 7.198 2.607l8.181-5.848.063-.017 19.004-.827 4.924 3.217 7.049-5.274-20.702-6.774c-3.614.156-7.325.203-10.909.216l-1.492-.007c-1.158-.028-2.362.024-3.521-.004l-.021-.333c1.158.028 2.363-.024 3.521.004l1.491.007c3.585-.013 7.312.004 10.972-.232l.064-.017 20.782 6.82 1.854-6.725 9.216.035-1.389 11.745-8.736-.773-.89-3.823-7.267 5.467-5.067-3.245-18.861.856-8.228 5.928-.08-.046c-.08-.046-6.751-2.456-7.278-2.653-.653-.164-26.576-1.409-40.148-2.037l-21.05 5.572zm108.198-10.036l.872 3.76 8.181.719 1.369-11.063-8.614-.061-1.808 6.645z"/><path d="M183.051 432.625l.013-.207-.648-30.967.189-.05 19.295 2.276-5.799 11.709 3.733 7.868 43.063 1.797-6.917-7.624.109-.097 9.912-13.284 5.783 9.959 17.395 6.306 1.327-6.922-8.608-9.135.219-.194 8.705 9.244-1.327 6.922 6.09-3.798.148.299-6.326 3.929.017.063-.063.017-.064.017-25.65 4.571.08.046-.413-.024-19.696.268-22.432 1.678-18.135 5.333zm-.361-30.909l.656 30.491 17.693-5.214 22.512-1.632 14.161-.207-38.08-1.643-3.881-8.167.046-.08 5.631-11.325-18.738-2.223zm53.686 15.673l6.98 7.607 25.318-4.55-17.092-6.184-5.635-9.66-9.571 12.787z"/><path d="M92.637 471.135l-37.911-65.188 27.605 30.514.846-42.064.24.139 28.55 16.856 10.009-23.532-.447-.151.523-.073 7.601-18.622.144.029 45.749 11.571-52.681 7.278 54.222 20.2-49.307 24.923 55.456-.71.08.046 8.693 9.45 9.076-14.888 2.651 4.84 23.875-6.397 10.014 8.825 5.495-9.054.063-.017 16.26 1.059 10.178-5.977-6.508 10.071-2.178-.297-29.309 13.405-.08-.046-.017-.064-2.562-4.255c-.586.089-3.942.447-25.83 2.386l-.494 6.495-.092.16-10.516-5.644-.017-.063-.144-.029.047-.08-8.693-9.45-55.995.719-21.607 22.443L82.5 437.092l-.177-.155-25.796-28.562 36.346 62.629-.236.131zm-9.855-34.254l22.738 18.414 21.405-22.186-14.966-21.241-29.177 25.013zm.691-41.886l-.793 41.507 29.085-24.852-28.292-16.655zm28.768 16.662l14.903 21.258 49.117-24.872-53.998-20.125-10.039 23.676.08.046-.063.017zm90.575 29.55c-4.831.414-8.806.735-10.184.901l9.732 5.245.452-6.146zm-1.722-13.755l-8.753 14.327c1.125-.098 5.353-.486 10.517-.922l.705-8.99-2.469-4.415zm-71.276-58.076l-7.37 18.222 51.447-7.083-44.077-11.139zm74.002 62.693l-.692 8.783c16.804-1.456 23.139-2.07 25.118-2.262l-24.426-6.521zm23.796-6.443l-23.307 6.245 24.792 6.625c.787-.346 7.093-3.593 8.352-4.201l-9.837-8.669zm1.679 13.089l2.511 4.066 29.01-13.257c-.389-1.452-.939-2.998-1.196-3.199-.408.244-3.262 2.227-5.063 3.59l-.063.017-16.675 4.468-.046.08-.08-.046c-.88.506-7.122 3.736-8.398 4.281zm14.019-13.369l-5.246 8.717 16.295-4.367c.518-.341 3.51-2.565 4.735-3.299l-15.784-1.051zm16.622.894c.422.564 1.01 2.505 1.213 3.263l1.971.284 5.643-8.755-8.827 5.208z"/><path d="M134.515 460.929l-7.692-28.199 26.29 19.29-.185.32-.017-.063-25.535-18.747 7.455 27.315-.316.084z"/><g opacity=".19"><path opacity=".19" d="M365.797 325.371c-.821.22-26.603 7.331-29.281 8.455l-.236.131c.384.168.75.273 1.071.458l-.093.16c5.259 1.434 10.829-.262 15.675-2.643 4.391-2.057 8.423-4.694 12.864-6.561zm-13.487 56.282a8.585 8.585 0 001.807-.078c3.403-.438 6.53-2.156 9.452-3.886-.064.017-.097-.11-.039-.396-.586-.926-3.289-3.181-3.289-3.181l-7.931 7.541z"/><path opacity=".19" d="M363.552 377.625c7.917-4.558 15.716-9.559 23.811-13.962l-15.307 3.763-8.504 10.199zm72.101-68.196c-3.015.875-21.368 3.627-22.016 3.733 1.267-.069 2.552-.075 3.808.063 1.731.145 3.496.417 4.955 1.312 1.458.896 2.627 2.478 2.561 4.256-.015.951-.351 1.718-.831 2.456-.017-.063 9.377-10.23 11.523-11.82zm-49.732 77.908l-6.961 4.844c4.33-.009 8.558-1.413 12.642-2.846 3.469-1.2 6.989-2.211 9.821-4.527l-7.523-.286-9.108-1.147 1.129 3.962zm58.182-109.282l52.378-7.4-1.408-.706c-2.831-.46-5.616-1-8.447-1.46-2.069-.393-4.12-.724-6.248-.831-5.459-.162-10.726 1.656-15.867 3.44-2.791.951-5.566 1.965-8.357 2.916-3.975 1.336-8.013 2.688-12.051 4.041zm-30.659 92.497l-12.067 14.336 24.816-8.951 2.253-10.284c-.357.434-4.976 5.936-4.976 5.936l-10.026-1.037z"/><path opacity=".19" d="M411.328 389.939l-9.968-5.114c-.327 1.306.93 2.459 2.131 3.152 2.449 1.308 5.032 2.105 7.766 2.455l.071-.493zm18.055-47.825l-26.934 9.383c-.307.624-15.023 12.149-15.023 12.149a213.453 213.453 0 018.461-4.298c6.328-2.914 12.917-5.356 18.982-8.742 3.772-2.093 7.316-4.532 11.053-6.752 1.053-.621 2.231-1.275 3.461-1.74zm-16.3 46.543l-1.738 1.345-.071.493c5.325.672 10.989-.169 16.367-1.068s10.755-1.799 15.964-3.33c.505-.135.931-.317 1.436-.452l-31.958 3.012zm15.346-23.067l-2.253 10.284 36.723-23.379-.672-8.824c.08.047-33.423 21.548-33.798 21.919z"/><path opacity=".19" d="M443.447 366.305l20.248-9.826 18.12-4.382-6.577-11.912-12.931 3.533.672 8.823-36.803 23.333 13.672-7.59 3.599-1.979zm1.76 14.15l-.12 5.11c5.347-1.772 10.416-4.078 15.599-6.211a210.563 210.563 0 0112.011-4.437l-3.692-5.442c-9.804 4.59-23.339 10.925-23.798 10.98zm36.608-28.358l-2.879 12.754-6.239 10.066c10.552-3.572 21.289-6.449 31.993-9.453l-22.875-13.367zm22.875 13.367c1.137-.304 2.211-.592 3.268-.943 8.05-2.292 16.131-4.728 23.666-8.44a143.783 143.783 0 006.491-3.567s-19.872 1.128-20.276 1.642c.119.442-13.149 11.308-13.149 11.308z"/></g><path d="M591.276 327.574c1.395-2.879 2.591-6.246 3.538-10.29a63.836 63.836 0 001.546-17.474c-.312-7.228-1.875-14.324-4.46-20.942-2.751-6.98-6.517-11.184-11.076-12.535l-.064.017-.063.017c-2.77 1.284-5.579 1.157-8.17.836-.843-.113-1.765-.272-2.608-.385-2.481-.418-5.089-.802-7.734-.568-1.98.192-3.967.86-5.845 1.431-.505.135-.93.317-1.436.452a50.178 50.178 0 01-5.259 1.342c-4.868 1.034-10.204 1.583-16.341 1.671l.021.332c6.137-.087 11.537-.654 16.405-1.687 1.802-.348 3.57-.822 5.259-1.342.505-.135.93-.317 1.436-.452 1.861-.634 3.802-1.222 5.781-1.414 2.565-.281 5.127.184 7.591.539.843.112 1.765.271 2.608.384 2.528.338 5.464.432 8.314-.806 4.433 1.385 8.119 5.542 10.819 12.333 2.649 6.601 4.131 13.651 4.443 20.878.289 5.88-.23 11.773-1.563 17.411-3.046 13.137-9.235 19.602-13.877 22.741l-.063.017-.092.16a20.889 20.889 0 00-3.161-1.184c-7.567-1.966-16.329 1.464-22.231 4.197-4.218 1.942-8.221 4.437-12.194 6.787-1.288.752-2.559 1.566-3.911 2.334-2.512 1.486-4.508 2.63-6.49 3.567-7.456 3.758-15.426 6.097-23.604 8.424-1.073.287-2.21.592-3.267.943-1.516.406-3.032.812-4.531 1.281-9.078 2.501-18.392 5.132-27.462 8.171a177.941 177.941 0 00-12.012 4.437c-1.465.596-2.976 1.272-4.441 1.867-3.591 1.504-7.355 3.122-11.157 4.344-.505.135-.994.334-1.436.452-5.192 1.594-10.65 2.448-15.884 3.376l-.063.017c-5.631.967-11.122 1.694-16.367 1.069-2.941-.363-5.461-1.177-7.686-2.409-.561-.324-2.437-1.513-2.08-2.963l.151-.446-.392.308c-2.44 2.007-5.548 3.043-8.529 4.045-.442.118-.804.283-1.246.402-3.831 1.365-8.231 2.882-12.578 2.828l-1.239-.074c-1.794-.128-4.103-.661-5.386-2.415-.991-1.427-1.137-3.487-.381-5.72.075-.223.197-.527.336-.767 1.634-3.755 5.034-6.223 7.581-7.583 2.483-1.342 5.149-2.259 7.797-3.24 1.057-.351 2.16-.782 3.263-1.212 2.694-1.061 5.545-2.299 8.689-3.953l-.148-.299c-3.144 1.655-5.994 2.892-8.689 3.953-1.04.414-2.16.781-3.263 1.212-2.602.901-5.313 1.898-7.797 3.24-2.593 1.44-6.056 3.925-7.737 7.76-.121.303-.26.544-.319.83-.802 2.314-.639 4.436.45 5.973 1.316 1.881 3.768 2.442 5.626 2.554.413.025.826.049 1.301.057 4.411.037 8.794-1.544 12.705-2.862.442-.119.804-.284 1.246-.402 2.855-.968 5.836-1.97 8.311-3.851-.07 1.508 1.709 2.588 2.269 2.912 2.306 1.277 4.889 2.075 7.829 2.437 5.262.689 10.8-.118 16.447-1.022l.064-.017c5.251-.865 10.692-1.782 15.901-3.313.505-.135.93-.317 1.436-.452 3.802-1.222 7.565-2.84 11.156-4.343 1.466-.596 2.977-1.272 4.442-1.867 3.781-1.555 7.658-3 12.012-4.438 9.069-3.039 18.383-5.67 27.462-8.17 1.516-.407 3.032-.813 4.531-1.282 1.136-.305 2.21-.592 3.267-.943 8.177-2.327 16.194-4.746 23.666-8.44a125.103 125.103 0 006.491-3.567c1.288-.752 2.622-1.583 3.91-2.334 3.894-2.397 7.914-4.828 12.132-6.771 5.839-2.715 14.537-6.129 22.024-4.209 1.1.315 2.217.692 3.241 1.23l.16.093.185-.321c3.337-2.451 7.317-6.293 10.49-12.897z"/><path d="M533.372 271.398l-.022-.332c-1.76-.003-3.647.029-5.488-.019-1.222-.011-2.46-.086-3.825-.126-2.81-.127-5.699-.301-8.446-.445-4.954-.297-10.114-.607-15.19-.601-1.078.018-1.979.192-2.749.601l-1.345-.722c-1.765-.272-3.484-.624-5.249-.896l-3.198-.564c-1.925-.364-4.12-.724-6.248-.831-5.539-.208-11.042 1.74-15.867 3.439l-8.357 2.917c-4.463 1.534-8.438 2.87-12.097 4.121l.085.316a389.542 389.542 0 0012.096-4.122l8.358-2.916c4.825-1.699 10.282-3.567 15.804-3.422 2.11.043 4.179.437 6.231.767l3.197.565c1.702.289 3.484.623 5.186.912l1.345.723.063-.017c.77-.409 1.672-.583 2.687-.584 5.075-.007 10.173.32 15.126.617 2.747.145 5.637.318 8.446.445 1.365.041 2.603.115 3.825.126 1.967.015 3.808.063 5.632.048zm-88.077 6.812l-.084-.316c-10.206 3.344-19.171 6.017-27.479 8.107l-.48-.277-.064.017c-8.07.199-16.203.415-24.273.614-.935.048-2.157.037-3.18.514-.897.443-1.847 1.443-1.732 2.63.055.459.237.885.418 1.31.233.615.511 1.149.251 1.693-.139.24-.277.48-.576.628-.409.245-.977.397-1.499.47l-.127.033c-2.766.539-5.165 2.197-7.455 3.758-.8.553-1.662 1.123-2.479 1.612-2.151 1.321-4.449 2.343-6.685 3.348l-10.516 4.714c-4.66 2.061-9.321 4.122-14.027 6.263-2.299 1.022-4.598 2.044-6.681 3.618-1.91 1.46-3.37 3.34-4.564 4.946-.248.337-.496.675-.698.932l-.046.08c-1.241 1.686-2.586 3.739-2.281 5.891.2 1.504 1.272 2.977 2.891 3.965.8.462 1.711.827 2.604 1.13l.91.365c.384.168.687.29.927.428l-.092.161.206.012c4.526 1.225 9.634.33 15.755-2.597 1.73-.869 3.443-1.802 5.093-2.718 2.467-1.406 5.077-2.782 7.691-3.889l-.148-.299c-2.694 1.061-5.224 2.483-7.754 3.906-1.65.916-3.363 1.849-5.093 2.718-5.995 2.893-10.977 3.754-15.388 2.702l.046-.08-.067-.253c-.321-.185-.687-.29-1.088-.521l-.91-.365c-.83-.319-1.74-.685-2.541-1.147-1.539-.942-2.514-2.305-2.696-3.746-.272-2.025.964-3.981 2.204-5.668l.046-.08c.249-.337.434-.657.699-.931 1.194-1.607 2.67-3.424 4.518-4.867 2.02-1.556 4.318-2.578 6.554-3.584 4.66-2.061 9.32-4.122 14.027-6.263l10.533-4.65c2.299-1.022 4.597-2.044 6.748-3.365.88-.507 1.68-1.06 2.542-1.629 2.29-1.561 4.643-3.14 7.409-3.678l.127-.034c.522-.072 1.153-.241 1.625-.503.362-.165.564-.422.686-.725.289-.687-.006-1.285-.255-1.963-.165-.362-.347-.787-.385-1.183-.081-1.061.777-1.901 1.547-2.31.96-.46 2.038-.478 3.053-.48l24.211-.597.544.26.063-.017c8.182-2.057 17.146-4.729 27.415-8.09zm-30.546 35.06l-.022-.333c-2.076.083-4.102.355-6.46.648l-3.736.46c-2.944.382-5.968.719-8.911 1.101-2.089.289-4.258.532-6.326 1.154-1.452.389-2.918.984-4.774 1.888-.897.443-1.84.967-2.736 1.41-1.903.984-3.852 2.048-5.949 2.813-1.229.464-2.555.82-3.882 1.175-1.074.288-2.21.593-3.314 1.024-.315.084-.614.232-.993.334l.084.315c.316-.084.615-.232.931-.317 1.057-.351 2.194-.655 3.25-1.006 1.264-.339 2.573-.757 3.883-1.176 2.096-.765 4.045-1.828 5.948-2.812.897-.443 1.84-.967 2.736-1.41 1.857-.904 3.322-1.5 4.775-1.889 2.067-.621 4.236-.864 6.325-1.153 2.944-.383 5.968-.719 8.911-1.102l3.736-.459c2.468-.391 4.447-.582 6.524-.665z"/><path d="M431.552 341.871l-.085-.315c-.379.101-.678.249-1.057.35-1.356.499-2.644 1.25-3.506 1.82-1.398.848-2.795 1.697-4.113 2.591-2.26 1.418-4.583 2.853-6.94 4.162-3.945 2.207-8.197 4.024-12.276 5.726-2.253.942-4.488 1.947-6.723 2.952a185.76 185.76 0 00-8.462 4.298c-5.203 2.816-10.338 5.885-15.283 8.902a407.792 407.792 0 01-8.528 5.061c-3.22 1.878-6.112 3.465-9.389 3.869a7.17 7.17 0 01-1.743.061c-3.126-.042-5.781-1.362-7.245-3.542-.798-1.208-1.204-2.724-1.151-4.295.061-2.047.77-4.2 2.057-5.967.883-1.252 2.006-2.365 3.462-3.5 1.612-1.312 3.481-2.422 5.114-3.401.88-.506 1.742-1.076 2.622-1.583a64.522 64.522 0 002.496-1.549l4.71-2.886 4.71-2.887 17.505-10.716c3.957-2.414 8.023-4.925 12.19-7.057a74.067 74.067 0 018.407-3.742l.316-.085c4.417-1.454 8.521-3.569 12.718-5.844 1.949-1.064 3.296-2.102 4.069-3.257.589-.835.845-1.648.878-2.537.036-1.634-1.041-3.377-2.659-4.365-1.298-.803-2.828-1.205-5.035-1.358-1.176-.092-2.46-.086-3.871-.046l.021.333c1.411-.04 2.633-.029 3.808.062 2.144.171 3.674.573 4.892 1.33 1.538.941 2.518 2.575 2.511 4.066a4.495 4.495 0 01-.848 2.393c-.791 1.092-2.074 2.113-3.96 3.16-4.197 2.275-8.301 4.39-12.655 5.828l-.315.084c-2.712.998-5.436 2.201-8.471 3.759-4.167 2.132-8.233 4.644-12.19 7.058l-17.534 10.858-4.71 2.887-4.71 2.887c-.817.49-1.633.979-2.496 1.549-.88.506-1.743 1.076-2.622 1.582-1.634.98-3.486 2.153-5.114 3.402-1.456 1.134-2.626 2.328-3.509 3.58-1.27 1.829-2.088 4.08-2.149 6.127-.019 1.697.387 3.213 1.202 4.484 1.481 2.244 4.279 3.592 7.485 3.681a8.588 8.588 0 001.807-.078c3.339-.421 6.294-2.025 9.514-3.903 2.875-1.65 5.78-3.444 8.528-5.061 4.946-3.017 10.081-6.086 15.284-8.901 3.018-1.621 5.817-3.049 8.461-4.298a322.885 322.885 0 016.723-2.953c4.063-1.765 8.315-3.582 12.259-5.789 2.357-1.309 4.681-2.744 6.941-4.162 1.334-.831 2.715-1.743 4.129-2.528.88-.506 2.105-1.241 3.46-1.739.392-.308.691-.456 1.07-.558z"/><path d="M432.516 341.681l-.085-.316-1.01.271.084.315a2.812 2.812 0 011.011-.27z"/><path d="M437.604 345.259c.446-.864.474-2.022-.142-2.805-.308-.391-.805-.732-1.475-.959-1.037-.331-2.212-.422-3.493-.147l.085.316a6.833 6.833 0 013.286.135c.59.18 1.07.458 1.378.849.696.829.432 2.118-.156 2.953-.635.915-1.641 1.455-2.584 1.979l-19.952 11.438.148.299 19.951-11.439c.943-.523 1.996-1.143 2.694-2.075.075-.223.168-.384.26-.544zm124.173-11.812l-22.487 19.158-.063.017c-7.733.448-19.442 1.216-20.166 1.545-.122.303-1.026 1.223-6.547 5.884-3.253 2.767-6.586 5.488-6.649 5.505l-.109.097-22.892-13.431-.08-.046 1.491-14.142-7.944-10.192-8.516-2.728 6.549-7.644-10.093-14.423-13.448-2.693 6.005-11.696-6.134-8.24-5.925-2.406.425-.182 52.441-7.417 35.778.635 47.52-4.812 15.474 33.493.016.064-15.654 40.615-.029.143-18.963-7.104zm18.925-66.81l-47.33 4.761-35.716-.652-51.855 7.328 5.078 2.024 6.328 8.459-5.896 11.599 13.162 2.633 10.304 14.705-6.394 7.468 8.087 2.639.063-.016 8.121 10.347-1.508 14.079 22.715 13.275c5.054-4.13 12.577-10.411 12.994-11.131l-.017-.064.126-.033c1.023-.478 14.412-1.29 20.275-1.642l22.487-19.159.046-.08 18.757 7.092 15.532-40.312-15.359-33.32zm-243.167 67.458l-.097-.11-.092.16-.16-.092.092-.16c.064-.017.047-.08.299-.148l.148.299-.19.051zm-.067-.253l-.03.143.03-.143zm29.521-8.316l-.084-.316-.253.067c-6.236 1.739-26.65 7.412-29.028 8.388l.147.299c2.379-.976 22.793-6.649 28.966-8.371l.252-.067z"/><path d="M349.493 326.423l-11.705 7.604-.147-.299 11.658-7.524-4.385-10.808 15.849 2.05-10.815 8.652 17.037-.842.021.333-17.513.834zm.025-.413l10.487-8.361-14.577-1.849 4.09 10.21z"/><path d="M337.708 333.981l-.034-.127.03-.143-.03.143-.113-.172.016.063.034.126-.029.143.126-.033z"/><path d="M419.778 291.614c-.11.097-.11.097-3.042-.742-2.44-.768-6.936-2.136-7.488-1.92-.075.223-.782.615-10.632 2.51-4.57.886-9.092 1.692-10.2 1.853l5.461 8.759.017.063-4.566 14.289-.046.08-21.632 8.707-.85.363-6.572-7.852-.097-.109-1.945-6.249.901-3.964-24.514 14.624 2.988 11.656.211.282-.409.245-.051-.19-3.089-12.035-.034-.126 25.394-15.131-1.018 4.538 1.974 6.105 6.475 7.743 22.12-8.906 4.49-14.065-5.688-9.104.252-.068c8.018-1.404 20.193-3.718 20.849-4.3-.017-.064.047-.081.11-.097.471-.262 2.957.426 7.74 1.852 1.323.39 2.646.78 2.789.81l.034.126.126-.034.034.126-.092.161z"/><path d="M453.646 336.154l-21.846 5.38 5.021-9.807-4.854-8.516-6.459-2.128c1.262-1.353 9.364-10.023 11.321-11.563.379-.101.425-.181.471-.262l.046-.08-.017-.063a.14.14 0 00-.16-.092c-.08-.047-.206-.013-.488.198-2.699.791-16.892 2.902-21.575 3.615l8.764-11.758-.017-.063c-.397-.977-3.949-9.435-4-9.625l-.299.148c.114.173 2.611 6.206 3.967 9.498l-9.214 12.353.442-.119.126-.034c4.161-.641 17.309-2.607 21.196-3.513-2.782 2.506-10.665 10.981-10.976 11.336l-.156.177 6.826 2.232 4.724 8.28-5.236 10.271.379-.101 1.01-.271 19.114-4.715-14.497 8.555.148.299 16.239-9.632z"/><path d="M436.822 331.727c.017.063-.03.143-.093.16-1.451 1.404-26.261 11.64-27.79 12.252l-5.269 7.37-.046.08-5.73-1.173-.029.143-.16-.092-17.048 9.645-.029.143-.017-.063-3.289 4.402-3.918 2.81-.172.113-7.527 4.251c-.523 2.848-.858 4.63-.924 5.393.097.109.148.299.102.379-.047.08-.11.097-.093.16l-.126.034-.08-.047c-.08-.046-.114-.172-.119-.442-.553-.799-2.644-2.541-3.175-3.008l-7.868 7.524-8.67-8.102-.097-.109.046-.08c5.503-9.531 5.612-9.628 5.612-9.628.11-.097.173-.114 9.737 5.515l.427-12.3 6.622 7.026 5.808 2.98c-3.287-15.299-3.115-15.413-3.005-15.51.109-.097.282-.211 10.447 8.168l7.041-18.947 10.243 9.171 2.057-16.325 9.085 10.157 16.32-22.718.257.201-16.118 22.462c3.654-1.521 25.959-10.747 27.238-12.037l.063-.017s-.046.08.034.126l.012-.206c.492-.944 31.246-6.68 31.499-6.748l.085.316c-2.641.504-29.963 5.659-31.343 6.571zm-38.932 18.42l5.523 1.16 5.177-7.209-8.697-9.72-2.003 15.769zm-17.065 9.582l16.623-9.464-9.825-8.876-6.798 18.34zm-7.552 7.439l3.746-2.696 3.225-4.385c-3.634-2.952-8.925-7.289-10.081-8.062.263 1.486 1.954 9.563 3.11 15.143zm-7.526 4.25l7.118-4.005-5.648-2.887c-.193.796-.917 3.901-1.47 6.892zm-4.205 2.752c.532.467 2.189 1.85 2.902 2.743.095-.906.418-2.482.807-4.82l-3.709 2.077zm-1.121-4.438c-.008.475.5 2.37.974 4.139l4.007-2.225a171.578 171.578 0 011.453-6.956c-2.554 1.836-6.249 4.721-6.434 5.042zm.025-.413c1.014-1.017 4.225-3.434 6.371-5.025l-6.04-6.37-.331 11.395zm-9.951-5.051c-.509.881-3.994 6.824-5.41 9.37l8.316 7.791 7.665-7.267-.016-.063.126-.034c-.22-.821-.948-3.537-.991-4.203-3.621-2.143-8.843-5.212-9.69-5.594z"/><path d="M468.16 324.886l-30.687-15.742 14.154-9.073-27.934.851-29.959 1.123-33.902 15.718.131.236.551-.216 33.304-15.423 29.897-1.105 26.792-.816-13.7 8.748 31.168 16.02.185-.321zm-36.608 16.986l-.085-.316-1.057.351-26.997 9.4-.046.08c-.277.48-9.089 7.513-14.976 12.069l-15.307 3.763-8.551 10.279.257.202.046-.08 8.459-10.119 15.306-3.763c1.457-1.135 14.089-11.087 15.023-12.149l27.928-9.717zm31.93 1.937c-11.503 7.347-33.313 21.45-33.751 21.838-.358.434-4.93 5.857-4.976 5.937l-.046.08-10.089-1.02-16.763 8.688-2.765 5.345-9.028-1.101 1.142 3.755-7.18 5.038-7.075-9.477 7.964-4.639 4.967 4.897 14.589-16.297.063-.017c3.207-1.672 6.444-3.487 9.618-5.285l1.288-.751c.989-.604 2.059-1.161 3.048-1.765l.147.299c-.989.604-2.058 1.161-3.047 1.764l-1.288.752c-3.111 1.781-6.331 3.659-9.555 5.268l-14.542 16.217 8.741 1.043 2.656-5.247 16.872-8.786.063-.017 10.009.974c.576-.629 4.555-5.486 4.93-5.857.357-.434 30.455-19.737 33.86-21.935l21.079-5.716.085.316-21.016 5.699zm-82.655 34.874l-7.43 4.36 6.717 8.897 6.725-4.713-1.125-3.693-4.887-4.851z"/><path d="M464.887 356.633l-20.265 9.763-17.191 9.616-.345.227.046-.08-24.5 8.867-.063.017-.063.017-.017-.064-7.443-.239-.022-.333 7.174.244-4.61-5.331 2.917-12.358.286.059-2.888 12.214 4.611 5.332 11.848-14.142.029-11.516 15.226 6.548.143.03-2.178 10.061 36.395-23.088-.701-8.681-10.876-7.24 15.571-11.619.189-.051 14.923 27.142.113.173-18.309 4.432zm-11.948-20.086l10.538 6.992.081.046.722 9.014-32.156 20.463 12.367-6.902 20.312-9.843 17.93-4.33-14.678-26.734-15.116 11.294zm-38.16 22.817l-.05 11.183-11.71 13.901 24.201-8.718 2.241-10.078-14.682-6.288z"/><path d="M580.42 340.366l.161-72.411-8.059 37.633-.075.223-10.59 27.682-29.934-8.633-48.853 27.375-2.803 12.53.08.046-.109.097.017.063-6.285 10.147-.16-.093-3.676-5.379c-19.971 9.346-23.01 10.634-23.562 10.85l-.091 4.966.017.063-.046.08-32.085 3.046-1.738 1.346-10.671-5.468 11.802.087 13.552-9.047.064-.017 9.285 5.094 4.26-12.65 23.875-6.397-.124-5.518 15.304 8.356 2.803-12.53.046-.081 48.382-27.112-55.163 3.069 36.858-44.604-49.228 20.163 33.834-32.895.11-.097 15.848 12.407.488-.199-.311.355 20.435 15.375 16.296-28.873.138-.24 21.766 36.004 8.649-40.227-.175 75.393-.332.021zm-46.097-41.67l-2.278 25.861 29.63 8.511 10.485-27.316-37.837-7.056zm.121-.303l37.615 6.98-21.457-35.613-16.158 28.633zm-.471.261l-20.469-15.501-36.702 44.427 54.974-3.018 2.277-25.861-.08-.047zm-60.139 75.958l5.806-9.408c-1.259.608-4.879 2.255-9.27 4.311l3.464 5.097zm-8.78-12.811l5.105 7.433c4.69-2.205 8.483-3.966 9.569-4.46l-14.744-8.032.07 5.059zm0-59.37l48.096-19.589-15.494-12.096-32.602 31.685zm-18.078 77.55c1.81-.823 7.603-3.459 22.884-10.6l-4.991-7.26-17.893 17.86zm-10.075.804c1.394-.103 8.479-.444 9.334-.538l18.158-18.134-23.307 6.246-4.185 12.426zm-.105.367l-.046.08-.08-.046-16.675 4.468-.063.016c-2.224-.216-5.704-.57-6.18-.578-.121.304.175 1.917.565 3.369l31.751-3.024.142-4.777c-1.394.103-8.415.427-9.414.492zm-22.589 3.615c1.445.087 5.131.453 5.75.491l16.296-4.367-8.948-4.846-13.098 8.722zm-11.036.25l9.264 4.761 1.566-1.232c-.203-.758-.665-2.733-.581-3.432l-10.249-.097z"/></g><path d="M1.065 387.081V85.595a27.335 27.335 0 0119.913-26.308L219.793 3.2a27.334 27.334 0 0114.844 0L433.45 59.287a27.336 27.336 0 0119.914 26.308v301.486c0 9.25-4.678 17.873-12.433 22.916L242.117 539.288a27.333 27.333 0 01-29.804 0L13.498 409.998A27.335 27.335 0 011.065 387.08z" stroke="#fff" stroke-opacity="0" stroke-width="2.13" style="transform-box:fill-box;transform-origin:50% 50%"><animateTransform attributeName="transform" type="scale" values="0.71; 1" dur="1s" repeatCount="indefinite" begin="3s"/><animate attributeName="stroke-opacity" values="0; 0.3; 0" dur="1s" repeatCount="indefinite" begin="3s"/></path><path d="M37.466 431.995V134.028c0-14.311 9.515-26.877 23.29-30.758l196.197-55.266a31.956 31.956 0 0117.329 0l196.196 55.266c13.776 3.88 23.291 16.447 23.291 30.758v297.967a31.956 31.956 0 01-14.552 26.8l-196.197 127.4a31.956 31.956 0 01-34.805 0l-196.197-127.4a31.955 31.955 0 01-14.552-26.8z" stroke="#fff" stroke-opacity="0" stroke-width="2.49" style="transform-box:fill-box;transform-origin:50% 50%"><animateTransform attributeName="transform" type="scale" values="0.83; 1" dur="1s" repeatCount="indefinite" begin="3s"/><animate attributeName="stroke-opacity" values="0; 0.3; 0" dur="1s" repeatCount="indefinite" begin="3s"/></path><path d="M92.82 493.926V205.481c0-17.239 11.459-32.377 28.051-37.055l188.702-53.207a38.488 38.488 0 0120.896 0l188.702 53.207c16.592 4.678 28.052 19.816 28.052 37.055v288.445a38.499 38.499 0 01-17.519 32.28L341.002 648.859a38.499 38.499 0 01-41.963 0L110.337 526.206a38.5 38.5 0 01-17.518-32.28z" stroke="#fff" stroke-opacity=".3" stroke-width="3" stroke-dasharray="2100 2100" stroke-dashoffset="2100"><animate attributeName="stroke-dashoffset" values="2100; 0" dur="3s" fill="freeze" repeatCount="1" begin="1s"/></path><path d="M135.65 470.405V244.498c0-17.224 11.44-32.352 28.012-37.044l145.871-41.299a38.508 38.508 0 0120.976 0l145.87 41.299c16.573 4.692 28.013 19.82 28.013 37.044v225.907a38.5 38.5 0 01-17.458 32.241l-145.871 95.203a38.501 38.501 0 01-42.084 0l-145.871-95.203a38.5 38.5 0 01-17.458-32.241z" stroke="#fff" stroke-width="3"/><g fill-opacity="0"><path d="M80 497.816v20.174c0 .671.336 1.297.896 1.667l13 8.611c.67.444 1.539.444 2.208 0l13-8.611c.56-.37.896-.996.896-1.667v-20.174a2 2 0 00-1.448-1.922l-13-3.735a1.994 1.994 0 00-1.104 0l-13 3.735A2 2 0 0080 497.816z" fill="#fff"/><path d="M85 502.413v12.807a2 2 0 00.885 1.661l8 5.371a2.003 2.003 0 002.23 0l8-5.371a2 2 0 00.885-1.661v-12.807a2 2 0 00-1.441-1.92l-8-2.33a1.988 1.988 0 00-1.118 0l-8 2.33a2 2 0 00-1.441 1.92z" fill="#fff"/><animate attributeName="fill-opacity" values="0; 1" dur="0.3s" fill="freeze" repeatCount="1" begin="1s"/></g><g fill-opacity="0"><path d="M83 172.816v20.174c0 .671.336 1.297.896 1.667l13 8.611c.67.444 1.539.444 2.208 0l13-8.611c.56-.37.896-.996.896-1.667v-20.174a2 2 0 00-1.448-1.922l-13-3.735a1.994 1.994 0 00-1.104 0l-13 3.735A2 2 0 0083 172.816z" fill="#fff"/><path d="M88 177.413v12.807a2 2 0 00.885 1.661l8 5.371a2.003 2.003 0 002.23 0l8-5.371a2 2 0 00.885-1.661v-12.807a2 2 0 00-1.441-1.92l-8-2.33a1.988 1.988 0 00-1.118 0l-8 2.33a2 2 0 00-1.441 1.92z" fill="#fff"/><animate attributeName="fill-opacity" values="0; 1" dur="0.3s" fill="freeze" repeatCount="1" begin="1.4s"/></g><g fill-opacity="0"><path d="M305 101.816v20.174c0 .671.336 1.297.896 1.667l13 8.611a1.997 1.997 0 002.208 0l13-8.611c.56-.37.896-.996.896-1.667v-20.174a2 2 0 00-1.448-1.922l-13-3.735a1.998 1.998 0 00-1.104 0l-13 3.735a2 2 0 00-1.448 1.922z" fill="#fff"/><path d="M310 106.413v12.807a2 2 0 00.885 1.661l8 5.371a2.003 2.003 0 002.23 0l8-5.371a2 2 0 00.885-1.661v-12.807a2 2 0 00-1.441-1.92l-8-2.33a1.987 1.987 0 00-1.118 0l-8 2.33a2 2 0 00-1.441 1.92z" fill="#fff"/><animate attributeName="fill-opacity" values="0; 1" dur="0.3s" fill="freeze" repeatCount="1" begin="1.8s"/></g><g fill-opacity="0"><path d="M528 172.816v20.174c0 .671.336 1.297.896 1.667l13 8.611a1.997 1.997 0 002.208 0l13-8.611c.56-.37.896-.996.896-1.667v-20.174a2 2 0 00-1.448-1.922l-13-3.735a1.992 1.992 0 00-1.104 0l-13 3.735a2 2 0 00-1.448 1.922z" fill="#fff"/><path d="M533 177.413v12.807a2 2 0 00.885 1.661l8 5.371a2.003 2.003 0 002.23 0l8-5.371a2 2 0 00.885-1.661v-12.807a2 2 0 00-1.441-1.92l-8-2.33a1.987 1.987 0 00-1.118 0l-8 2.33a2 2 0 00-1.441 1.92z" fill="#fff"/><animate attributeName="fill-opacity" values="0; 1" dur="0.3s" fill="freeze" repeatCount="1" begin="2.2s"/></g><g fill-opacity="0"><path d="M530 497.816v20.174c0 .671.336 1.297.896 1.667l13 8.611a1.997 1.997 0 002.208 0l13-8.611c.56-.37.896-.996.896-1.667v-20.174a2 2 0 00-1.448-1.922l-13-3.735a1.992 1.992 0 00-1.104 0l-13 3.735a2 2 0 00-1.448 1.922z" fill="#fff"/><path d="M535 502.413v12.807a2 2 0 00.885 1.661l8 5.371a2.003 2.003 0 002.23 0l8-5.371a2 2 0 00.885-1.661v-12.807a2 2 0 00-1.441-1.92l-8-2.33a1.987 1.987 0 00-1.118 0l-8 2.33a2 2 0 00-1.441 1.92z" fill="#fff"/><animate attributeName="fill-opacity" values="0; 1" dur="0.3s" fill="freeze" repeatCount="1" begin="2.6s"/></g><g fill-opacity="0"><path d="M305 642.816v20.174c0 .671.336 1.297.896 1.667l13 8.611a1.997 1.997 0 002.208 0l13-8.611c.56-.37.896-.996.896-1.667v-20.174a2 2 0 00-1.448-1.922l-13-3.735a1.992 1.992 0 00-1.104 0l-13 3.735a2 2 0 00-1.448 1.922z" fill="#fff"/><path d="M310 647.413v12.807a2 2 0 00.885 1.661l8 5.371a2.003 2.003 0 002.23 0l8-5.371a2 2 0 00.885-1.661v-12.807a2 2 0 00-1.441-1.92l-8-2.33a1.987 1.987 0 00-1.118 0l-8 2.33a2 2 0 00-1.441 1.92z" fill="#fff"/><animate attributeName="fill-opacity" values="0; 1" dur="0.3s" fill="freeze" repeatCount="1" begin="3s"/></g></svg>.058 289.958 388.24 290.384 388.421 290.809C388.654 291.424 388.932 291.958 388.672 292.502C388.533 292.742 388.395 292.982 388.096 293.13C387.687 293.375 387.119 293.527 386.597 293.6L386.47 293.633C383.704 294.172 381.305 295.83 379.015 297.391C378.215 297.944 377.353 298.514 376.536 299.003C374.385 300.324 372.087 301.346 369.851 302.351L359.335 307.065C354.675 309.126 350.014 311.187 345.308 313.328C343.009 314.35 340.71 315.372 338.627 316.946C336.717 318.406 335.257 320.286 334.063 321.892C333.815 322.229 333.567 322.567 333.365 322.824L333.319 322.904C332.078 324.59 330.733 326.643 331.038 328.795C331.238 330.299 332.31 331.772 333.929 332.76C334.729 333.222 335.64 333.587 336.533 333.89C336.836 334.011 337.14 334.133 337.443 334.255C337.827 334.423 338.13 334.545 338.37 334.683L338.278 334.844L338.484 334.856C343.01 336.081 348.118 335.186 354.239 332.259C355.969 331.39 357.682 330.457 359.332 329.541C361.799 328.135 364.409 326.759 367.023 325.652L366.875 325.353C364.181 326.414 361.651 327.836 359.121 329.259C357.471 330.175 355.758 331.108 354.028 331.977C348.033 334.87 343.051 335.731 338.64 334.679L338.686 334.599L338.619 334.346C338.298 334.161 337.932 334.056 337.531 333.825C337.228 333.703 336.924 333.582 336.621 333.46C335.791 333.141 334.881 332.775 334.08 332.313C332.541 331.371 331.566 330.008 331.384 328.567C331.112 326.542 332.348 324.586 333.588 322.899L333.634 322.819C333.883 322.482 334.068 322.162 334.333 321.888C335.527 320.281 337.003 318.464 338.851 317.021C340.871 315.465 343.169 314.443 345.405 313.437C350.065 311.376 354.725 309.315 359.432 307.174L369.965 302.524C372.264 301.502 374.562 300.48 376.713 299.159C377.593 298.652 378.393 298.099 379.255 297.53C381.545 295.969 383.898 294.39 386.664 293.852L386.791 293.818C387.313 293.746 387.944 293.577 388.416 293.315C388.778 293.15 388.98 292.893 389.102 292.59C389.391 291.903 389.096 291.305 388.847 290.627C388.682 290.265 388.5 289.84 388.462 289.444C388.381 288.383 389.239 287.543 390.009 287.134C390.969 286.674 392.047 286.656 393.062 286.654C401.133 286.455 409.203 286.256 417.273 286.057L417.817 286.317L417.88 286.3C426.062 284.243 435.026 281.571 445.295 278.21Z"
            fill="white" fill-opacity="0.71" />
        <path
            d="M414.749 313.27L414.727 312.937C412.651 313.02 410.625 313.292 408.267 313.585L404.531 314.045C401.587 314.427 398.563 314.764 395.62 315.146C393.531 315.435 391.362 315.678 389.294 316.3C387.842 316.689 386.376 317.284 384.52 318.188C383.623 318.631 382.68 319.155 381.784 319.598C379.881 320.582 377.932 321.646 375.835 322.411C374.606 322.875 373.28 323.231 371.953 323.586C370.879 323.874 369.743 324.179 368.639 324.61C368.324 324.694 368.025 324.842 367.646 324.944L367.73 325.259C368.046 325.175 368.345 325.027 368.661 324.942C369.718 324.591 370.855 324.287 371.911 323.936C373.175 323.597 374.484 323.179 375.794 322.76C377.89 321.995 379.839 320.932 381.742 319.948C382.639 319.505 383.582 318.981 384.478 318.538C386.335 317.634 387.8 317.038 389.253 316.649C391.32 316.028 393.489 315.785 395.578 315.496C398.522 315.113 401.546 314.777 404.489 314.394L408.225 313.935C410.693 313.544 412.672 313.353 414.749 313.27Z"
            fill="white" fill-opacity="0.71" />
        <path
            d="M431.552 341.871L431.467 341.556C431.088 341.657 430.789 341.805 430.41 341.906C429.054 342.405 427.766 343.156 426.904 343.726C425.506 344.574 424.109 345.423 422.791 346.317C420.531 347.735 418.208 349.17 415.851 350.479C411.906 352.686 407.654 354.503 403.575 356.205C401.322 357.147 399.087 358.152 396.852 359.157C394.208 360.407 391.408 361.834 388.39 363.455C383.187 366.271 378.052 369.34 373.107 372.357C370.312 374.054 367.454 375.767 364.579 377.418C361.359 379.296 358.467 380.883 355.19 381.287C354.605 381.376 354.003 381.402 353.447 381.348C350.321 381.306 347.666 379.986 346.202 377.806C345.404 376.598 344.998 375.082 345.051 373.511C345.112 371.464 345.821 369.311 347.108 367.544C347.991 366.292 349.114 365.179 350.57 364.044C352.182 362.732 354.051 361.622 355.684 360.643C356.564 360.137 357.426 359.567 358.306 359.06C359.123 358.571 359.939 358.081 360.802 357.511C362.372 356.549 363.942 355.587 365.512 354.625C367.082 353.662 368.652 352.7 370.222 351.738L387.727 341.022C391.684 338.608 395.75 336.097 399.917 333.965C402.889 332.424 405.676 331.203 408.324 330.223L408.64 330.138C413.057 328.684 417.161 326.569 421.358 324.294C423.307 323.23 424.654 322.192 425.427 321.037C426.016 320.202 426.272 319.389 426.305 318.5C426.341 316.866 425.264 315.123 423.646 314.135C422.348 313.332 420.818 312.93 418.611 312.777C417.435 312.685 416.151 312.691 414.74 312.731L414.761 313.064C416.172 313.024 417.394 313.035 418.569 313.126C420.713 313.297 422.243 313.699 423.461 314.456C424.999 315.397 425.979 317.031 425.972 318.522C425.922 319.347 425.666 320.161 425.124 320.915C424.333 322.007 423.05 323.028 421.164 324.075C416.967 326.35 412.863 328.465 408.509 329.903L408.194 329.987C405.482 330.985 402.758 332.188 399.723 333.746C395.556 335.878 391.49 338.39 387.533 340.804L369.999 351.662C368.429 352.625 366.859 353.587 365.289 354.549C363.719 355.511 362.149 356.474 360.579 357.436C359.762 357.926 358.946 358.415 358.083 358.985C357.203 359.491 356.34 360.061 355.461 360.567C353.827 361.547 351.975 362.72 350.347 363.969C348.891 365.103 347.721 366.297 346.838 367.549C345.568 369.378 344.75 371.629 344.689 373.676C344.67 375.373 345.076 376.889 345.891 378.16C347.372 380.404 350.17 381.752 353.376 381.841C353.995 381.878 354.597 381.852 355.183 381.763C358.522 381.342 361.477 379.738 364.697 377.86C367.572 376.21 370.477 374.416 373.225 372.799C378.171 369.782 383.306 366.713 388.509 363.898C391.527 362.277 394.326 360.849 396.97 359.6C399.205 358.594 401.504 357.572 403.693 356.647C407.756 354.882 412.008 353.065 415.952 350.858C418.309 349.549 420.633 348.114 422.893 346.696C424.227 345.865 425.608 344.953 427.022 344.168C427.902 343.662 429.127 342.927 430.482 342.429C430.874 342.121 431.173 341.973 431.552 341.871Z"
            fill="white" fill-opacity="0.71" />
        <path
            d="M432.516 341.681L432.431 341.365C432.115 341.45 431.8 341.534 431.421 341.636L431.505 341.951C431.867 341.787 432.183 341.702 432.516 341.681Z"
            fill="white" fill-opacity="0.71" />
        <path
            d="M437.604 345.259C438.05 344.395 438.078 343.237 437.462 342.454C437.154 342.063 436.657 341.722 435.987 341.495C434.95 341.164 433.775 341.073 432.494 341.348L432.579 341.664C433.733 341.422 434.908 341.514 435.865 341.799C436.455 341.979 436.935 342.257 437.243 342.648C437.939 343.477 437.675 344.766 437.087 345.601C436.452 346.516 435.446 347.056 434.503 347.58L414.551 359.018L414.699 359.317L434.65 347.878C435.593 347.355 436.646 346.735 437.344 345.803C437.419 345.58 437.512 345.419 437.604 345.259Z"
            fill="white" fill-opacity="0.71" />
        <path
            d="M561.777 333.447L539.29 352.605L539.227 352.622C531.494 353.07 519.785 353.838 519.061 354.167C518.939 354.47 518.035 355.39 512.514 360.051C509.261 362.818 505.928 365.539 505.865 365.556L505.756 365.653L482.864 352.222L482.784 352.176L484.275 338.034L476.331 327.842L467.815 325.114L474.364 317.47L464.271 303.047L450.823 300.354L456.828 288.658L450.694 280.418L444.769 278.012L445.194 277.83L497.635 270.413L533.413 271.048L580.933 266.236L596.407 299.729L596.423 299.793L580.769 340.408L580.74 340.551L561.777 333.447ZM580.702 266.637L533.372 271.398L497.656 270.746L445.801 278.074L450.879 280.098L457.207 288.557L451.311 300.156L464.473 302.789L474.777 317.494L468.383 324.962L476.47 327.601L476.533 327.585L484.654 337.932L483.146 352.011L505.861 365.286C510.915 361.156 518.438 354.875 518.855 354.155L518.838 354.091L518.964 354.058C519.987 353.58 533.376 352.768 539.239 352.416L561.726 333.257L561.772 333.177L580.529 340.269L596.061 299.957L580.702 266.637Z"
            fill="white" fill-opacity="0.71" />
        <path
            d="M337.535 334.095L337.438 333.985L337.346 334.145L337.186 334.053L337.278 333.893C337.342 333.876 337.325 333.813 337.577 333.745L337.725 334.044C337.599 334.078 337.535 334.095 337.535 334.095ZM337.468 333.842L337.438 333.985L337.468 333.842Z"
            fill="white" fill-opacity="0.71" />
        <path
            d="M366.989 325.526L366.905 325.21L366.652 325.277C360.416 327.016 340.002 332.689 337.624 333.665L337.771 333.964C340.15 332.988 360.564 327.315 366.737 325.593L366.989 325.526Z"
            fill="white" fill-opacity="0.71" />
        <path
            d="M349.493 326.423L337.788 334.027L337.641 333.728L349.299 326.204L344.914 315.396L360.763 317.446L349.948 326.098L366.985 325.256L367.006 325.589L349.493 326.423ZM349.518 326.01L360.005 317.649L345.428 315.8L349.518 326.01Z"
            fill="white" fill-opacity="0.71" />
        <path
            d="M337.708 333.981L337.674 333.854L337.704 333.711L337.674 333.854L337.561 333.682L337.577 333.745L337.611 333.871L337.582 334.014L337.708 333.981Z"
            fill="white" fill-opacity="0.71" />
        <path
            d="M419.778 291.614C419.668 291.711 419.668 291.711 416.736 290.872C414.296 290.104 409.8 288.736 409.248 288.952C409.173 289.175 408.466 289.567 398.616 291.462C394.046 292.348 389.524 293.154 388.416 293.315L393.877 302.074L393.894 302.137L389.328 316.426L389.282 316.506L367.65 325.213L366.8 325.576L360.228 317.724L360.131 317.615L358.186 311.366L359.087 307.402L334.573 322.026L337.561 333.682L337.772 333.964L337.363 334.209L337.312 334.019L334.223 321.984L334.189 321.858L359.583 306.727L358.565 311.265L360.539 317.37L367.014 325.113L389.134 316.207L393.624 302.142L387.936 293.038L388.188 292.97C396.206 291.566 408.381 289.252 409.037 288.67C409.02 288.606 409.084 288.589 409.147 288.573C409.618 288.311 412.104 288.999 416.887 290.425C418.21 290.815 419.533 291.205 419.676 291.235L419.71 291.361L419.836 291.327L419.87 291.453L419.778 291.614Z"
            fill="white" fill-opacity="0.71" />
        <path
            d="M453.646 336.154L431.8 341.534L436.821 331.727L431.967 323.211L425.508 321.083C426.77 319.73 434.872 311.06 436.829 309.52C437.208 309.419 437.254 309.339 437.3 309.258L437.346 309.178L437.329 309.115C437.312 309.052 437.232 309.006 437.169 309.023C437.089 308.976 436.963 309.01 436.681 309.221C433.982 310.012 419.789 312.123 415.106 312.836L423.87 301.078L423.853 301.015C423.456 300.038 419.904 291.58 419.853 291.39L419.554 291.538C419.668 291.711 422.165 297.744 423.521 301.036L414.307 313.389L414.749 313.27L414.875 313.236C419.036 312.595 432.184 310.629 436.071 309.723C433.289 312.229 425.406 320.704 425.095 321.059L424.939 321.236L431.765 323.468L436.489 331.748L431.253 342.019L431.632 341.918L432.642 341.647L451.756 336.932L437.259 345.487L437.407 345.786L453.646 336.154Z"
            fill="white" fill-opacity="0.71" />
        <path
            d="M436.822 331.727C436.839 331.79 436.792 331.87 436.729 331.887C435.278 333.291 410.468 343.527 408.939 344.139L403.67 351.509L403.624 351.589L397.894 350.416L397.865 350.559L397.705 350.467L380.657 360.112L380.628 360.255L380.611 360.192L377.322 364.594L373.404 367.404L373.232 367.517L365.705 371.768C365.182 374.616 364.847 376.398 364.781 377.161C364.878 377.27 364.929 377.46 364.883 377.54C364.836 377.62 364.773 377.637 364.79 377.7L364.664 377.734L364.584 377.687C364.504 377.641 364.47 377.515 364.465 377.245C363.912 376.446 361.821 374.704 361.29 374.237L353.422 381.761L344.752 373.659L344.655 373.55L344.701 373.47C350.204 363.939 350.313 363.842 350.313 363.842C350.423 363.745 350.486 363.728 360.05 369.357L360.477 357.057L367.099 364.083L372.907 367.063C369.62 351.764 369.792 351.65 369.902 351.553C370.011 351.456 370.184 351.342 380.349 359.721L387.39 340.774L397.633 349.945L399.69 333.62L408.775 343.777L425.095 321.059L425.352 321.26L409.234 343.722C412.888 342.201 435.193 332.975 436.472 331.685L436.535 331.668C436.535 331.668 436.489 331.748 436.569 331.794L436.581 331.588C437.073 330.644 467.827 324.908 468.08 324.84L468.165 325.156C465.524 325.66 438.202 330.815 436.822 331.727ZM397.89 350.147L403.413 351.307L408.59 344.098L399.893 334.378L397.89 350.147ZM380.825 359.729L397.448 350.265L387.623 341.389L380.825 359.729ZM373.273 367.168L377.019 364.472L380.244 360.087C376.61 357.135 371.319 352.798 370.163 352.025C370.426 353.511 372.117 361.588 373.273 367.168ZM365.747 371.418L372.865 367.413L367.217 364.526C367.024 365.322 366.3 368.427 365.747 371.418ZM361.542 374.17C362.074 374.637 363.731 376.02 364.444 376.913C364.539 376.007 364.862 374.431 365.251 372.093L361.542 374.17ZM360.421 369.732C360.413 370.207 360.921 372.102 361.395 373.871L365.402 371.646C365.925 368.798 366.604 365.773 366.855 364.69C364.301 366.526 360.606 369.411 360.421 369.732ZM360.446 369.319C361.46 368.302 364.671 365.885 366.817 364.294L360.777 357.924L360.446 369.319ZM350.495 364.268C349.986 365.149 346.501 371.092 345.085 373.638L353.401 381.429L361.066 374.162L361.05 374.099L361.176 374.065C360.956 373.244 360.228 370.528 360.185 369.862C356.564 367.719 351.342 364.65 350.495 364.268Z"
            fill="white" fill-opacity="0.71" />
        <path
            d="M468.16 324.886L437.473 309.144L451.627 300.071L423.693 300.922L393.734 302.045L359.832 317.763L359.963 317.999L360.514 317.783L393.818 302.36L423.715 301.255L450.507 300.439L436.807 309.187L467.975 325.207L468.16 324.886Z"
            fill="white" fill-opacity="0.71" />
        <path
            d="M431.552 341.872L431.467 341.556L430.41 341.907L403.413 351.307L403.367 351.387C403.09 351.867 394.278 358.9 388.391 363.456L373.084 367.219L364.533 377.498L364.79 377.7L364.836 377.62L373.295 367.501L388.601 363.738C390.058 362.603 402.69 352.651 403.624 351.589L431.552 341.872Z"
            fill="white" fill-opacity="0.71" />
        <path
            d="M463.482 343.809C451.979 351.156 430.169 365.259 429.731 365.647C429.373 366.081 424.801 371.504 424.755 371.584L424.709 371.664L414.62 370.644L397.857 379.332L395.092 384.677L386.064 383.576L387.206 387.331L380.026 392.369L372.951 382.892L380.915 378.253L385.882 383.15L400.471 366.853L400.534 366.836C403.741 365.164 406.978 363.349 410.152 361.551L411.44 360.8C412.429 360.196 413.499 359.639 414.488 359.035L414.635 359.334C413.646 359.938 412.577 360.495 411.588 361.098L410.3 361.85C407.189 363.631 403.969 365.509 400.745 367.118L386.203 383.335L394.944 384.378L397.6 379.131L414.472 370.345L414.535 370.328L424.544 371.302C425.12 370.673 429.099 365.816 429.474 365.445C429.831 365.011 459.929 345.708 463.334 343.51L484.413 337.794L484.498 338.11L463.482 343.809ZM380.827 378.683L373.397 383.043L380.114 391.94L386.839 387.227L385.714 383.534L380.827 378.683Z"
            fill="white" fill-opacity="0.71" />
        <path
            d="M464.887 356.633L444.622 366.396L427.431 376.012L427.086 376.239L427.132 376.159L402.632 385.026L402.569 385.043L402.506 385.06L402.489 384.996L395.046 384.757L395.024 384.424L402.198 384.668L397.588 379.337L400.505 366.979L400.791 367.038L397.903 379.252L402.514 384.584L414.362 370.442L414.391 358.926L429.617 365.474L429.76 365.504L427.582 375.565L463.977 352.477L463.276 343.796L452.4 336.556L467.971 324.937L468.16 324.886L483.083 352.028L483.196 352.201L464.887 356.633ZM452.939 336.547L463.477 343.539L463.558 343.585L464.28 352.599L432.124 373.062L444.491 366.16L464.803 356.317L482.733 351.987L468.055 325.253L452.939 336.547ZM414.779 359.364L414.729 370.547L403.019 384.448L427.22 375.73L429.461 365.652L414.779 359.364Z"
            fill="white" fill-opacity="0.71" />
        <path
            d="M580.42 340.366L580.581 267.955L572.522 305.588L572.447 305.811L561.857 333.493L531.923 324.86L483.07 352.235L480.267 364.765L480.347 364.811L480.238 364.908L480.255 364.971L473.97 375.118L473.81 375.025L470.134 369.646C450.163 378.992 447.124 380.28 446.572 380.496L446.481 385.462L446.498 385.525L446.452 385.605L414.367 388.651L412.629 389.997L401.958 384.529L413.76 384.616L427.312 375.569L427.376 375.552L436.661 380.646L440.921 367.996L464.796 361.599L464.672 356.081L479.976 364.437L482.779 351.907L482.825 351.826L531.207 324.714L476.044 327.783L512.902 283.179L463.674 303.342L497.508 270.447L497.618 270.35L513.466 282.757L513.954 282.558L513.643 282.913L534.078 298.288L550.374 269.415L550.512 269.175L572.278 305.179L580.927 264.952L580.752 340.345L580.42 340.366ZM534.323 298.696L532.045 324.557L561.675 333.068L572.16 305.752L534.323 298.696ZM534.444 298.393L572.059 305.373L550.602 269.76L534.444 298.393ZM533.973 298.654L513.504 283.153L476.802 327.58L531.776 324.562L534.053 298.701L533.973 298.654ZM473.834 374.612L479.64 365.204C478.381 365.812 474.761 367.459 470.37 369.515L473.834 374.612ZM465.054 361.801L470.159 369.234C474.849 367.029 478.642 365.268 479.728 364.774L464.984 356.742L465.054 361.801ZM465.054 302.431L513.15 282.842L497.656 270.746L465.054 302.431ZM446.976 379.981C448.786 379.158 454.579 376.522 469.86 369.381L464.869 362.121L446.976 379.981ZM436.901 380.785C438.295 380.682 445.38 380.341 446.235 380.247L464.393 362.113L441.086 368.359L436.901 380.785ZM436.796 381.152L436.75 381.232L436.67 381.186L419.995 385.654L419.932 385.67C417.708 385.454 414.228 385.1 413.752 385.092C413.631 385.396 413.927 387.009 414.317 388.461L446.068 385.437L446.21 380.66C444.816 380.763 437.795 381.087 436.796 381.152ZM414.207 384.767C415.652 384.854 419.338 385.22 419.957 385.258L436.253 380.891L427.305 376.045L414.207 384.767ZM403.171 385.017L412.435 389.778L414.001 388.546C413.798 387.788 413.336 385.813 413.42 385.114L403.171 385.017Z"
            fill="white" fill-opacity="0.71" />
    </g>
    <path d="M1.5 545.185V120.557C1.5 103.32 12.9572 88.1831 29.5469 83.5031L309.568 4.50743C316.403 2.57913 323.639 2.57914 330.474 4.50743L610.495 83.5031C627.084 88.1831 638.542 103.32 638.542 120.557V244.459V545.185C638.542 558.214 631.953 570.358 621.031 577.461L341.01 759.561C328.248 767.861 311.794 767.861 299.032 759.561L19.0109 577.461C8.08895 570.358 1.5 558.214 1.5 545.185Z" stroke="white" stroke-opacity="0" stroke-width="3" transform="scale(0.71)" style="transform-box: fill-box; transform-origin: 50% 50%;">
        <animateTransform
            attributeName="transform"
            type="scale"
            values="0.71; 1"
            dur="1s"
            repeatCount="indefinite"
            begin="3s"
        />
        <animate
            attributeName="stroke-opacity"
            values="0; 0.3; 0"
            dur="1s"
            repeatCount="indefinite"
            begin="3s"
        />
    </path>
    <path d="M45.1392 520.476V161.479C45.1392 144.237 56.6037 129.097 73.2005 124.422L309.582 57.8357C316.408 55.9128 323.633 55.9128 330.46 57.8357L566.841 124.422C583.438 129.097 594.903 144.237 594.903 161.479V264.148V520.476C594.903 533.514 588.304 545.666 577.37 552.766L340.988 706.26C328.236 714.54 311.806 714.54 299.054 706.26L62.672 552.766C51.7375 545.666 45.1392 533.514 45.1392 520.476Z" stroke="white" stroke-opacity="0" stroke-width="3" transform="scale(0.83)" style="transform-box: fill-box; transform-origin: 50% 50%;">
        <animateTransform
            attributeName="transform"
            type="scale"
            values="0.83; 1"
            dur="1s"
            repeatCount="indefinite"
            begin="3s"
        />
        <animate
            attributeName="stroke-opacity"
            values="0; 0.3; 0"
            dur="1s"
            repeatCount="indefinite"
            begin="3s"
        />
    </path>
    <path d="M92.8191 493.926V205.481C92.8191 188.242 104.279 173.104 120.871 168.426L309.573 115.219C316.405 113.292 323.637 113.292 330.469 115.219L519.171 168.426C535.763 173.104 547.223 188.242 547.223 205.481V285.328V493.926C547.223 506.957 540.631 519.104 529.704 526.206L341.002 648.859C328.244 657.152 311.798 657.152 299.039 648.859L110.337 526.206C99.4112 519.104 92.8191 506.957 92.8191 493.926Z" stroke="white" stroke-opacity="0.3" stroke-width="3" stroke-dasharray="2100 2100" stroke-dashoffset="2100">
        <animate
            attributeName="stroke-dashoffset"
            values="2100; 0"
            dur="3s"
            fill="freeze"
            repeatCount="1"
            begin="1s"
        />
    </path>
    <path
        d="M135.65 470.405V244.498C135.65 227.274 147.09 212.146 163.662 207.454L309.533 166.155C316.39 164.214 323.652 164.214 330.509 166.155L476.379 207.454C492.952 212.146 504.392 227.274 504.392 244.498V304.122V470.405C504.392 483.411 497.825 495.538 486.934 502.646L341.063 597.849C328.276 606.194 311.766 606.194 298.979 597.849L153.108 502.646C142.217 495.538 135.65 483.411 135.65 470.405Z"
        stroke="white" stroke-width="3" />
    <g fill-opacity="0">
        <path
            d="M80 497.816V517.99C80 518.661 80.3363 519.287 80.8956 519.657L93.8956 528.268C94.5651 528.712 95.4349 528.712 96.1044 528.268L109.104 519.657C109.664 519.287 110 518.661 110 517.99V503.671V497.816C110 496.925 109.409 496.14 108.552 495.894L95.5523 492.159C95.1914 492.055 94.8086 492.055 94.4477 492.159L81.4477 495.894C80.5905 496.14 80 496.925 80 497.816Z"
            fill="white" />
        <path
            d="M85 502.413V515.22C85 515.887 85.3319 516.51 85.8852 516.881L93.8852 522.252C94.5595 522.704 95.4405 522.704 96.1148 522.252L104.115 516.881C104.668 516.51 105 515.887 105 515.22V505.886V502.413C105 501.524 104.413 500.741 103.559 500.493L95.5592 498.163C95.194 498.056 94.806 498.056 94.4408 498.163L86.4408 500.493C85.5871 500.741 85 501.524 85 502.413Z"
            fill="white" />
        <animate
            attributeName="fill-opacity"
            values="0; 1"
            dur="0.3s"
            fill="freeze"
            repeatCount="1"
            begin="1s"
        />
    </g>
    <g fill-opacity="0">
        <path
            d="M83 172.816V192.99C83 193.661 83.3363 194.287 83.8956 194.657L96.8956 203.268C97.5651 203.712 98.4349 203.712 99.1044 203.268L112.104 194.657C112.664 194.287 113 193.661 113 192.99V178.671V172.816C113 171.925 112.409 171.14 111.552 170.894L98.5523 167.159C98.1914 167.055 97.8086 167.055 97.4477 167.159L84.4477 170.894C83.5905 171.14 83 171.925 83 172.816Z"
            fill="white" />
        <path
            d="M88 177.413V190.22C88 190.887 88.3319 191.51 88.8852 191.881L96.8852 197.252C97.5595 197.704 98.4405 197.704 99.1148 197.252L107.115 191.881C107.668 191.51 108 190.887 108 190.22V180.886V177.413C108 176.524 107.413 175.741 106.559 175.493L98.5592 173.163C98.194 173.056 97.806 173.056 97.4408 173.163L89.4408 175.493C88.5871 175.741 88 176.524 88 177.413Z"
            fill="white" />
        <animate
            attributeName="fill-opacity"
            values="0; 1"
            dur="0.3s"
            fill="freeze"
            repeatCount="1"
            begin="1.4s"
        />
    </g>
    <g fill-opacity="0">
        <path
            d="M305 101.816V121.99C305 122.661 305.336 123.287 305.896 123.657L318.896 132.268C319.565 132.712 320.435 132.712 321.104 132.268L334.104 123.657C334.664 123.287 335 122.661 335 121.99V107.671V101.816C335 100.925 334.409 100.14 333.552 99.8942L320.552 96.1587C320.191 96.055 319.809 96.055 319.448 96.1587L306.448 99.8942C305.591 100.14 305 100.925 305 101.816Z"
            fill="white" />
        <path
            d="M310 106.413V119.22C310 119.887 310.332 120.51 310.885 120.881L318.885 126.252C319.559 126.704 320.441 126.704 321.115 126.252L329.115 120.881C329.668 120.51 330 119.887 330 119.22V109.886V106.413C330 105.524 329.413 104.741 328.559 104.493L320.559 102.163C320.194 102.056 319.806 102.056 319.441 102.163L311.441 104.493C310.587 104.741 310 105.524 310 106.413Z"
            fill="white" />
        <animate
            attributeName="fill-opacity"
            values="0; 1"
            dur="0.3s"
            fill="freeze"
            repeatCount="1"
            begin="1.8s"
        />
    </g>
    <g fill-opacity="0">
        <path
            d="M528 172.816V192.99C528 193.661 528.336 194.287 528.896 194.657L541.896 203.268C542.565 203.712 543.435 203.712 544.104 203.268L557.104 194.657C557.664 194.287 558 193.661 558 192.99V178.671V172.816C558 171.925 557.409 171.14 556.552 170.894L543.552 167.159C543.191 167.055 542.809 167.055 542.448 167.159L529.448 170.894C528.591 171.14 528 171.925 528 172.816Z"
            fill="white" />
        <path
            d="M533 177.413V190.22C533 190.887 533.332 191.51 533.885 191.881L541.885 197.252C542.559 197.704 543.441 197.704 544.115 197.252L552.115 191.881C552.668 191.51 553 190.887 553 190.22V180.886V177.413C553 176.524 552.413 175.741 551.559 175.493L543.559 173.163C543.194 173.056 542.806 173.056 542.441 173.163L534.441 175.493C533.587 175.741 533 176.524 533 177.413Z"
            fill="white" />
        <animate
            attributeName="fill-opacity"
            values="0; 1"
            dur="0.3s"
            fill="freeze"
            repeatCount="1"
            begin="2.2s"
        />
    </g>
    <g fill-opacity="0">
        <path
            d="M530 497.816V517.99C530 518.661 530.336 519.287 530.896 519.657L543.896 528.268C544.565 528.712 545.435 528.712 546.104 528.268L559.104 519.657C559.664 519.287 560 518.661 560 517.99V503.671V497.816C560 496.925 559.409 496.14 558.552 495.894L545.552 492.159C545.191 492.055 544.809 492.055 544.448 492.159L531.448 495.894C530.591 496.14 530 496.925 530 497.816Z"
            fill="white" />
        <path
            d="M535 502.413V515.22C535 515.887 535.332 516.51 535.885 516.881L543.885 522.252C544.559 522.704 545.441 522.704 546.115 522.252L554.115 516.881C554.668 516.51 555 515.887 555 515.22V505.886V502.413C555 501.524 554.413 500.741 553.559 500.493L545.559 498.163C545.194 498.056 544.806 498.056 544.441 498.163L536.441 500.493C535.587 500.741 535 501.524 535 502.413Z"
            fill="white" />
        <animate
            attributeName="fill-opacity"
            values="0; 1"
            dur="0.3s"
            fill="freeze"
            repeatCount="1"
            begin="2.6s"
        />
    </g>
    <g fill-opacity="0">
        <path
            d="M305 642.816V662.99C305 663.661 305.336 664.287 305.896 664.657L318.896 673.268C319.565 673.712 320.435 673.712 321.104 673.268L334.104 664.657C334.664 664.287 335 663.661 335 662.99V648.671V642.816C335 641.925 334.409 641.14 333.552 640.894L320.552 637.159C320.191 637.055 319.809 637.055 319.448 637.159L306.448 640.894C305.591 641.14 305 641.925 305 642.816Z"
            fill="white" />
        <path
            d="M310 647.413V660.22C310 660.887 310.332 661.51 310.885 661.881L318.885 667.252C319.559 667.704 320.441 667.704 321.115 667.252L329.115 661.881C329.668 661.51 330 660.887 330 660.22V650.886V647.413C330 646.524 329.413 645.741 328.559 645.493L320.559 643.163C320.194 643.056 319.806 643.056 319.441 643.163L311.441 645.493C310.587 645.741 310 646.524 310 647.413Z"
            fill="white" />
        <animate
            attributeName="fill-opacity"
            values="0; 1"
            dur="0.3s"
            fill="freeze"
            repeatCount="1"
            begin="3s"
        />
    </g>
</svg>